<svg xmlns="http://www.w3.org/2000/svg" viewBox="0 0 3000 1800"><defs><style>.cls-1{fill:#fff;}.cls-2{fill:#ccb181;}.cls-3{fill:none;}</style></defs><g id="Background"><rect class="cls-1" width="3000" height="1800"/></g><g id="Bunga"><path class="cls-2" d="M1722.72,312.52a38.81,38.81,0,0,0,3.66,8.29h0c.07.14.13.28.2.43a11.09,11.09,0,0,0,2.91,3.93,20.32,20.32,0,0,0,4.66,2.39c3.36,1.51,6.07,4.14,9.46,5.6a10.5,10.5,0,0,0,5,.95,16.11,16.11,0,0,0,5.13-1.68,26.12,26.12,0,0,1,3-1.19l.42-.12h0a31,31,0,0,0,19.37-12.24,36,36,0,0,0,6.59-24.32,43.41,43.41,0,0,0-.61-4.54,1.62,1.62,0,0,0,0-.19c-.06-.32-.13-.64-.2-1l-.06-.3-1-1.29c-2.93-3.94-5.82-7.91-8.46-12.06-4.57-7.16-8.52-14.91-10.25-23.29a44.2,44.2,0,0,1-.88-7.42q2.46-5.42,4.53-11a175.39,175.39,0,0,0,7.11-24.49,172.67,172.67,0,0,0,3.47-25.41c.06-1,.12-2,.16-3,0-.41-.6-.35-.62,0a173.52,173.52,0,0,1-9.72,50q-2.11,6-4.67,11.83l-.28.63c-.19.44-.39.88-.59,1.32a85,85,0,0,1-4.83,9.28c-4.12,6.75-9.78,12.13-15.92,17.05-4.72,3.77-9.64,7.31-14.21,11.26-.43.37-.86.74-1.28,1.12l-.2.42c-.16.35-.32.69-.47,1,0,0,0,0,0,0q-.78,1.83-1.38,3.72A41.1,41.1,0,0,0,1722.72,312.52Zm16.16-39.95c6.07-4.76,12-9.84,16.33-16.26a75.89,75.89,0,0,0,5.89-10.62,51.48,51.48,0,0,0,4.11,16.71c3.32,7.88,8.08,15.05,13.09,21.94.78,1.07,1.57,2.13,2.36,3.2l-1.22-1a8.49,8.49,0,0,0-2-1.37,4.47,4.47,0,0,0-2.38-.13,46.25,46.25,0,0,0-6.88,1.55,35.49,35.49,0,0,1-3.44-2.91,13.13,13.13,0,0,0-2-1.91,5.13,5.13,0,0,0-2.77-.44c-3,0-6.13.13-8.88,1.3-.68-.56-1.35-1.14-2-1.73a5.09,5.09,0,0,0-1.74-1.08,4.68,4.68,0,0,0-2.35,0c-1.73.36-3.46.79-5.15,1.3a10.22,10.22,0,0,0-1.25.43,14.79,14.79,0,0,0-6.23-1.47,12.11,12.11,0,0,0-4.85,1.68l-.73.4C1730.66,278.82,1734.82,275.74,1738.88,272.57Zm-13.79,11.33c.79-.51,1.6-1,2.42-1.44a11.54,11.54,0,0,1,5.07-1.74,13,13,0,0,1,5.21,1.2l.79.31c.28-.12.56-.22.85-.32l.77-.24c1.53-.44,3.09-.83,4.65-1.17a4.07,4.07,0,0,1,2.58,0,6.09,6.09,0,0,1,1.56,1.16c.47.43.94.84,1.42,1.23l.54.43c.22-.1.45-.2.67-.28A23.17,23.17,0,0,1,1760,282a3.8,3.8,0,0,1,2.91.77c.72.66,1.37,1.38,2.09,2s1.62,1.41,2.47,2.06l.62.47.75-.23a45.86,45.86,0,0,1,5.82-1.33,4.55,4.55,0,0,1,2.71.09,10.43,10.43,0,0,1,2.05,1.51l2.29,1.87a39.44,39.44,0,0,1,0,16.72A32.84,32.84,0,0,1,1769,325.45a29.19,29.19,0,0,1-6.87,3.69,26.76,26.76,0,0,1-5,1.35h0c-.58.17-1.16.35-1.72.56-1.66.65-3.24,1.54-4.95,2.06a8.87,8.87,0,0,1-5.3-.05c-3.4-1.07-6.07-3.57-9.14-5.28-1.49-.84-3.13-1.36-4.64-2.16a8.81,8.81,0,0,1-1.72-1.2h0l0,0a37.18,37.18,0,0,1-2.72-4,38.18,38.18,0,0,1-1.83-3.54,39.89,39.89,0,0,1-3.46-14.68A39.26,39.26,0,0,1,1725.09,283.9Z"/><path class="cls-2" d="M1726.12,318.34a40.49,40.49,0,0,1-.38-22.39c0-.2.36-.14.31.06a40.16,40.16,0,0,0,.36,22.22C1726.47,318.42,1726.18,318.53,1726.12,318.34Z"/><path class="cls-2" d="M1725.59,293.89a.16.16,0,0,1-.31-.06L1726,290c0-.19.35-.13.31.06Z"/><path class="cls-2" d="M1736.36,325c0,.6-.1,1.19-.14,1.79,0,.2-.33.14-.31-.06,0-.59.09-1.19.14-1.78C1736.07,324.71,1736.38,324.78,1736.36,325Z"/><path class="cls-2" d="M1737.57,295.26a61.11,61.11,0,0,0-1.53,27.32c0,.2-.28.22-.31,0a61.36,61.36,0,0,1,1.53-27.41C1737.31,295,1737.62,295.06,1737.57,295.26Z"/><path class="cls-2" d="M1740.34,317.81a5.17,5.17,0,0,0,0-1.71c0-.2.28-.23.31,0a5.72,5.72,0,0,1,0,1.8C1740.63,318.07,1740.32,318,1740.34,317.81Z"/><path class="cls-2" d="M1740.34,313.33a11.07,11.07,0,0,1,.21-2.57.16.16,0,0,1,.31.06,11.49,11.49,0,0,0-.21,2.48C1740.66,313.5,1740.35,313.53,1740.34,313.33Z"/><path class="cls-2" d="M1737.51,291.91a20.84,20.84,0,0,1,1.93-5.12c.1-.18.38,0,.28.14a20.59,20.59,0,0,0-1.9,5C1737.77,292.16,1737.47,292.11,1737.51,291.91Z"/><path class="cls-2" d="M1741.53,309.24c0,.2-.34.14-.31-.06a115.47,115.47,0,0,1,6.17-22.66c.07-.19.35,0,.28.14A114.45,114.45,0,0,0,1741.53,309.24Z"/><path class="cls-2" d="M1750.74,327.4a3.35,3.35,0,0,0,.31-1.11c0-.2.32-.14.3.06a3.46,3.46,0,0,1-.33,1.18C1750.93,327.71,1750.65,327.58,1750.74,327.4Z"/><path class="cls-2" d="M1750.64,309.19q-1,3.76-2,7.54c-.05.19-.36.13-.31-.06q1-3.78,2-7.54C1750.39,308.93,1750.69,309,1750.64,309.19Z"/><path class="cls-2" d="M1748.38,285c-.06.19-.37.13-.31-.06l.74-2.3c.06-.19.37-.13.31.06Z"/><path class="cls-2" d="M1750.63,306.18a5.46,5.46,0,0,0,.49-1.64c0-.2.33-.13.31.06a5.38,5.38,0,0,1-.52,1.71A.15.15,0,0,1,1750.63,306.18Z"/><path class="cls-2" d="M1759,302.13a156.64,156.64,0,0,1-6.92,22.75c-.08.19-.36.05-.29-.14a154.71,154.71,0,0,0,6.9-22.67C1758.75,301.88,1759.05,301.94,1759,302.13Z"/><path class="cls-2" d="M1758.79,327.84a1.27,1.27,0,0,0,.63-.6c.08-.18.37,0,.28.14a1.56,1.56,0,0,1-.81.75C1758.71,328.21,1758.6,327.91,1758.79,327.84Z"/><path class="cls-2" d="M1759.36,300.08c0,.05-.09.07-.18.07A.15.15,0,0,1,1759.36,300.08Z"/><path class="cls-2" d="M1759.06,299.81c.12-.74.25-1.47.37-2.21l.8-4.67a.16.16,0,0,1,.31.06l-.63,3.69c-.1.57-.2,1.15-.29,1.72-.06.33-.12.65-.17,1l-.09.49a.37.37,0,0,1,0,.21.15.15,0,0,0-.18.07c.09,0,.15,0,.18-.07a.14.14,0,0,1,.1.21l0,.06a.17.17,0,0,1-.17.09C1758.92,300.39,1759,300.06,1759.06,299.81Z"/><path class="cls-2" d="M1760.54,289.08c0,.51-.07,1-.11,1.52,0,.2-.32.14-.31-.06l.11-1.52C1760.24,288.82,1760.55,288.88,1760.54,289.08Z"/><path class="cls-2" d="M1756.63,326.09a37,37,0,0,0,6.24-9.9c.08-.19.36-.05.28.14a37.24,37.24,0,0,1-6.28,10C1756.73,326.44,1756.49,326.24,1756.63,326.09Z"/><path class="cls-2" d="M1763.88,314.93a1.63,1.63,0,0,0,.25-1.25c-.05-.19.25-.3.29-.1a1.94,1.94,0,0,1-.3,1.55C1764,315.3,1763.77,315.09,1763.88,314.93Z"/><path class="cls-2" d="M1765.49,311.87a53.82,53.82,0,0,0,4.1-19.88c0-.2.32-.22.31,0a54.07,54.07,0,0,1-4.13,20C1765.69,312.2,1765.41,312.06,1765.49,311.87Z"/><path class="cls-2" d="M1776.54,298.53l-.18,3.16c0,.2-.32.14-.31-.06.06-1.05.13-2.11.19-3.16C1776.25,298.27,1776.56,298.33,1776.54,298.53Z"/><path class="cls-2" d="M1762.28,326.57c7-5.53,13.61-12.86,14.07-22.21,0-.2.32-.23.31,0a21.47,21.47,0,0,1-1.08,5.79c-2.29,6.92-7.52,12.27-13.12,16.71C1762.3,327,1762.13,326.69,1762.28,326.57Z"/><path class="cls-2" d="M1775.7,295.38a2.76,2.76,0,0,0,0-1.18c0-.19.26-.3.3-.1a3.18,3.18,0,0,1,0,1.34A.16.16,0,0,1,1775.7,295.38Z"/><path class="cls-2" d="M1735.73,1683.66l-.64.32c-19.46,7.8-41.34,9.68-62.23,8.2-16.91-1.19-33.47-4.55-50.07-7.77-15.37-3-31.48-5.52-47-2.2A56.68,56.68,0,0,0,1551,1694l-.5.44c-10.58,2.76-20.56,8.1-28,16.27a98.62,98.62,0,0,0-10.69,15,148.12,148.12,0,0,0-8.71,16.18c-.38.85-.75,1.7-1.11,2.56,2.92-13.13,6-26.22,9.6-39.18a369.61,369.61,0,0,1,15.31-43.74q1.47-3.55,3-7.1l0,0c10.18-19.3,26.42-35,44.91-46.38a165.6,165.6,0,0,1,27.24-13.18,85.71,85.71,0,0,1,21.76-5.6c1.6-.17,3.2-.28,4.8-.35l.06.06.09.09c14,13.27,34.42,19.26,53.43,20.29s37.86-2,56.77-3.56h0a131.41,131.41,0,0,0,16.7-.45c.91-.08,1.83-.17,2.74-.28l1.92-.22h0c-.47-.5-1-1-1.43-1.46l-.11-.11a70.86,70.86,0,0,0-19.44-13.12,283.92,283.92,0,0,0-32.66-12.63c-19.46-6.37-40.91-9.81-60.52-2.06a51,51,0,0,0-17.45,11.23l-.58.61-1.73.1a81.59,81.59,0,0,0-21.93,4.82c-19.8,7.09-38.39,17.62-53.65,32.19a120.15,120.15,0,0,0-15.6,18.12q6-12.84,13-25.2l.09-.13.1-.21,0,0q3.69-6.5,7.68-12.79c11.22-17.71,24.64-33.75,39-49,13.66-14.56,27.82-28.66,40.66-44l1.52-1.83,1-.26.18,0c21-5.86,38.59-22,51.35-39.34,14.65-19.89,25.29-42.7,40-62.48.83-1.11,1.66-2.2,2.51-3.29l-1.86,1.07c-.59.33-1.17.67-1.75,1l-2.88,1.65q-8.12,4.66-16.2,9.38c-10.1,5.89-20.11,12-29.25,19.37a121.78,121.78,0,0,0-43.12,70.38c-23.66,28.55-51.86,53.16-73.56,83.36,12.13-20.12,25-39.81,35.37-60.9.18-.32.37-.64.55-1,11.37-19.88,21.59-40.53,26.48-63,3.26-15,3.39-30.15,2.46-45.37-.83-13.6-1.89-27.08-1.62-40.71.13-6.67.43-13.39,1.09-20.08.14-1.48.31-3,.49-4.42-.47.84-.93,1.69-1.37,2.56l-.65,1.29c-.47,1-.92,1.94-1.35,2.92-.32.7-.62,1.41-.91,2.12-6.13,14.85-8.2,30.7-10,46.54-1.92,17.07-3.71,34.48-10.48,50.44-3.56,8.38-8.21,16.27-11.33,24.83a61.2,61.2,0,0,0-3.75,20.75,63.21,63.21,0,0,0,6.07,27.27c.07.15.14.31.22.46-10.17,19.74-22.47,38.5-33.85,57.45-4.92,8.19-9.72,16.47-14.13,25-5.52,9.69-10.55,19.67-15.18,29.8-1.16,2.54-2.3,5.08-3.42,7.64a395,395,0,0,0-17,46.29c-5.8,19.66-10.09,39.82-14.39,59.84l0,.19c-.23,1-.45,2-.65,3h0q-.62,2.85-1.21,5.72c.32-13.48-1.45-27-3.08-40.43a183.85,183.85,0,0,0-2.86-18.43,22.43,22.43,0,0,1-.11-11,46.54,46.54,0,0,1,3.85-9.19c.37-.71.75-1.41,1.13-2.11,0,.11,0,.21-.07.32.43-.72.85-1.44,1.27-2.17,1.11-1.09,2.19-2.19,3.23-3.26a103.07,103.07,0,0,0,14.93-20c8.62-14.89,13.87-31.55,17.28-48.35,7.17-35.29,5.53-71.56,10.93-107.08q.58-3.87,1.3-7.72l0-.18c.19-1,.38-2,.59-3-.71.82-1.41,1.64-2.1,2.47l0,0a202.89,202.89,0,0,0-23.48,35,208.15,208.15,0,0,0-19.76,54.31,204.9,204.9,0,0,0-3.78,58c.8,10.66,1.7,21.23,0,31.86-.43,2.68-1,5.35-1.55,8-.08.33-.15.65-.22,1a62.6,62.6,0,0,0-4.45,9.77,22.21,22.21,0,0,0-1,11.62c.35,1.89.83,3.76,1.24,5.64.63,2.94,1,5.89,1.33,8.88,1.23,10.72,2.78,21.41,3.48,32.18a128.24,128.24,0,0,1-.75,26.79c-4.22,20.85-8,41.79-11.26,62.81-1.93,12.63-3.64,25.31-4.76,38-.82,9.31-1.5,18.78-.77,28.12.13,1.66.32,3.3.6,4.93.17,1,1.79.92,1.61-.1-1.41-8.21-1-16.79-.43-25.06.76-12.12,2.25-24.2,4-36.22,3-21,6.65-41.87,10.75-62.67,0,0,0-.08,0-.13a86.81,86.81,0,0,0,1.82-9.22q1.23-6.08,2.5-12.16c.45-2.15.91-4.3,1.36-6.46h0l0-.12c0-.17.07-.34.1-.5.07-.35.15-.7.22-1.05a2.46,2.46,0,0,1,.07-.29c2.54-11.6,7.37-22.34,13.41-32.55,6.23-10.53,13.11-20.56,23.91-26.81a61.51,61.51,0,0,1,14.8-6.1l.22.36c.08.13.16.26.25.39a66.32,66.32,0,0,0,24.57,22.31c19.14,10.2,42,12.17,63.26,10.32a159.93,159.93,0,0,0,55.64-15.36,155,155,0,0,0,24.94-15.07c5.89-4.36,11.44-9.15,17-13.87a1.74,1.74,0,0,1,.22-.18q1.64-1.38,3.28-2.75l1-.82,1.74-1.43C1740.34,1681.26,1738,1682.48,1735.73,1683.66Zm-83.45-82.13a69,69,0,0,1-21.15-12.7c1.14,0,2.28,0,3.42,0h.08c5.9.1,11.79.69,17.64,1.35a.94.94,0,0,0,.34,0c18.5,2.48,36.88,7.91,54.91,11.6a210.43,210.43,0,0,0,21.64,3.36C1703.5,1607.68,1676.93,1611.1,1652.28,1601.53Zm-7.47-23.75a66,66,0,0,1,26.53-5.27c10.6,0,21.11,2.24,31.22,5.31a313.11,313.11,0,0,1,31.63,11.69,87.08,87.08,0,0,1,17.28,9.4,54.34,54.34,0,0,1,5.22,4.34c-6.15.07-12.29.43-18.32,1l-2.1-.1a181.46,181.46,0,0,1-24-3.1c-16.12-3-31.94-7.51-48.06-10.57a174.84,174.84,0,0,0-24.63-3.06h-.19c-2.92-.17-5.85-.24-8.77-.18A48.51,48.51,0,0,1,1644.81,1577.78Zm80.76-167.42.22-.23q-2.13,3-4.13,6c-17.51,26.6-30.78,57.23-56.56,77.22a81.05,81.05,0,0,1-25.23,13.53q2.16-3.09,4.39-6.12c.68-.88,1.37-1.77,2-2.67a.69.69,0,0,0,.15-.31c6.3-8.41,13-16.56,19.77-24.55,9.31-10.9,19-21.43,29-31.71S1715.64,1420.94,1725.57,1410.36ZM1657.15,1464a118,118,0,0,1,22.38-24.71c8.71-7.24,18.3-13.32,28-19.07q7.28-4.31,14.6-8.51c-8.11,8.55-16.45,16.9-24.68,25.3-19.34,19.74-38,40.34-54.35,62.67-1.16,1.47-2.32,2.94-3.51,4.4A121.41,121.41,0,0,1,1657.15,1464Zm-30.59-51.15c1.13,15.48,1.83,31.06-.83,46.44-2.55,14.86-7.71,29.13-14.07,42.76q-2.15,4.59-4.45,9.09c1.67-4.26,3.2-8.59,4.56-13a186.17,186.17,0,0,0,7.84-25.1c2-9,2.68-18.14,3.26-27.31s.93-18.59,1.24-27.9c.38-11.62.7-23.24,1.29-34.85C1625.36,1392.91,1625.84,1402.85,1626.56,1412.8Zm-30.72,118.94a62.18,62.18,0,0,1-5.37-22.37,58.85,58.85,0,0,1,2.41-19.92c2.62-8.66,7.16-16.56,10.92-24.74,7-15.22,9.55-31.63,11.44-48.14,1.8-15.63,3.23-31.43,8.34-46.41q.59-1.71,1.23-3.39c-1.11,14.47-1.6,29-2.06,43.48-.3,9.33-.59,18.66-1.06,28s-.85,18.89-2.42,28.16c-1.81,10.76-5.17,21.1-9,31.27-3,7.8-6.23,15.5-9.32,23.21q-1.29,3.21-2.55,6.47l-.12.26C1597.44,1529,1596.64,1530.37,1595.84,1531.74Zm-60,19.75c-2.2,34.72-4.24,70.67-19.68,102.52a107.92,107.92,0,0,1-15.48,23.79c-.74.86-1.5,1.7-2.27,2.52q1.49-2.38,3-4.74a.65.65,0,0,0-.1-.88c.68-1.33,1.33-2.68,2-4,5.16-11.07,8.09-22.58,10.12-34.6,4.7-27.79,5.08-56.18,11.53-83.69a301.36,301.36,0,0,1,15.35-46.71C1537.9,1520.84,1536.81,1536.31,1535.85,1551.49ZM1497,1669.57a122,122,0,0,0-.29-15.53c-.69-10-1.49-19.93-1.19-30a198.85,198.85,0,0,1,3.07-29.42,206.56,206.56,0,0,1,18.27-55.22A202.3,202.3,0,0,1,1539.2,1504a319.91,319.91,0,0,0-13.28,37.91,276.09,276.09,0,0,0-7.82,40.92c-1.7,14.16-2.81,28.38-4.72,42.51-1.75,12.92-3.88,26-8.77,38.19a152.26,152.26,0,0,1-7.59,15.9c-.6.94-1.19,1.89-1.78,2.85A92.8,92.8,0,0,0,1497,1669.57Zm76.64,14.8c15.64-4.06,32.15-1.58,47.75,1.41,16.41,3.14,32.74,6.53,49.43,7.86,15.69,1.24,31.57.82,47-2.62,1.65-.36,3.29-.77,4.93-1.21a160.85,160.85,0,0,1-28,9.34,116.85,116.85,0,0,1-31.57,3c-11.84-.58-23.21-3.73-34.55-7-10.66-3-21.34-5.88-32.44-6.61a108.89,108.89,0,0,0-28.26,1.87,110,110,0,0,0-13.54,3.57.77.77,0,0,0-.36-.23A55.36,55.36,0,0,1,1573.61,1684.37Zm153.22,6.75a170.33,170.33,0,0,1-22.64,16,158,158,0,0,1-54.29,19.38c-20.6,3.31-42.78,3.08-62.62-3.92-13.9-4.9-26.79-13.92-34.83-26.26a110.46,110.46,0,0,1,10.87-3.26,108.3,108.3,0,0,1,28.47-3.1c10.94.27,21.54,2.6,32,5.54,11.33,3.17,22.62,6.74,34.38,7.88a112.24,112.24,0,0,0,31.26-1.54c14.34-2.64,28-7.62,41.12-13.86C1729.35,1689,1728.1,1690.08,1726.83,1691.12Z"/><path class="cls-2" d="M1720.28,25.4l0,0h0Z"/><path class="cls-2" d="M1638.16,40.7a45.2,45.2,0,0,0,13.18,7.74,61.63,61.63,0,0,0,18.5,4.24,42.33,42.33,0,0,0,17.5-2.31,70.55,70.55,0,0,0,17.36-9.57,100.37,100.37,0,0,0,15.67-14.18l-.12,0,.18-.08,2-.89c1.55-.73,3.08-1.5,4.57-2.34A65.24,65.24,0,0,0,1740.43,13q-1.38,1.89-2.75,3.8c-5.22,7.26-10.25,14.67-15.35,22h0l-1.89,2.72c-.73,1.06-1.47,2.11-2.21,3.16-6.61,9.37-13.46,18.62-21,27.29-2.13,2.46-4.33,4.88-6.59,7.23-.66.68-1.32,1.35-2,2q-4,4-8.22,7.66c-5.34-3-10.54-6.14-15.71-9.4s-11-6.49-17.35-6.7a16.46,16.46,0,0,0-8.13,1.73c-2.83,1.44-5.27,3.63-8.29,4.68-2.84,1-5.89.7-8.83.86a18.43,18.43,0,0,0-8.15,2.46c-2.91,1.61-5.68,3.64-9,4.47-1.25.31-2.58.39-3.82.77q-.32.1-.63.24c.12.19.23.39.34.58a36.63,36.63,0,0,0,11.88,12.19,51.12,51.12,0,0,0,17.82,6.58c11.68,2.21,24.18,1.5,34.88-4a40.09,40.09,0,0,0,12.66-10.1l.41-.52a34.47,34.47,0,0,0,2.11-3l.19-.3a.28.28,0,0,0,0-.12l.15-.13c2-1.73,4-3.52,5.87-5.36-1.42,2.09-2.9,4.13-4.34,6.19-.12.19-.25.37-.38.55l-.9,1.33q-.74,1.09-1.44,2.22l-.36.59a50.92,50.92,0,0,0-3.39,6.46,38.77,38.77,0,0,0-9.66,12.59,44,44,0,0,0-3.91,15.8c-.22,2.82-.3,5.66-.38,8.49a57.53,57.53,0,0,0,.19,8.3,25.81,25.81,0,0,0,1.94,7.37,41.86,41.86,0,0,0,3.76,6.61c3,4.38,6.39,8.51,8.61,13.32h0c.21.54.43,1.06.68,1.58.17.34.74.08.6-.27-.21-.52-.43-1-.67-1.55a18.65,18.65,0,0,1,.65-14.63c1.38-2.82,3.43-5.25,4.46-8.25a23.61,23.61,0,0,0,1.08-7.28c.1-5.13-.73-10.42.74-15.43.87-3,2.74-5.5,3.71-8.43a16.8,16.8,0,0,0,.17-8.65,36.43,36.43,0,0,0-7.75-16.08q1.2-1.91,2.48-3.78l.38-.54c1.77-2.57,3.6-5.1,5.31-7.7l.65-1q2.8-2.82,5.47-5.75a301.77,301.77,0,0,0,21.12-26.69c1.21-1.66,2.4-3.34,3.59-5-1,2.64-2.06,5.31-3.06,8a59.72,59.72,0,0,0-2.41,7.66c-.05.24-.11.48-.16.73v.07a34,34,0,0,0-.58,4.24,57.63,57.63,0,0,0-5.89,13.89,52.51,52.51,0,0,0-2.72,16,53.22,53.22,0,0,0,12.26,32.46,52.1,52.1,0,0,0,10.28,9.56l.72.49c0-.29-.07-.57-.09-.86a11.61,11.61,0,0,1,1.68-6.79,17.89,17.89,0,0,0,2.21-3.9,10.56,10.56,0,0,0,.31-3.92c-.21-2.85-.75-5.62-.43-8.49a14.42,14.42,0,0,1,1-4.13,12.17,12.17,0,0,1,2.42-3.47,5.65,5.65,0,0,0,1.9-3.2c.12-1.29-.55-2.49-.91-3.69-.81-2.77-.7-5.7-.81-8.55a25.26,25.26,0,0,0-1.6-8.29,31.11,31.11,0,0,0-4.22-7.47c-4.13-5.51-9.61-9.74-14.84-14.15,1.06-5,3.14-9.81,5-14.55.52-1.33,1-2.66,1.61-4,4.85-6.94,9.59-14,14.48-20.87q4.1-5.81,8.36-11.49c4.55-4.91,8.64-10.22,12.69-15.54a240.15,240.15,0,0,1,24.57-24.33c1-.88,2.18-1.62,3.16-2.55.31-.29-.17-.74-.48-.45-1,.93-2.13,1.67-3.16,2.55s-2.27,2-3.39,2.95q-3.21,2.85-6.33,5.81-6.27,6-12.07,12.42l-2.18,2.44a.25.25,0,0,0-.14.1l-.27.36c-2.88,3.26-5.72,6.57-8.41,10q-2.31,2.94-4.55,5.92a72.32,72.32,0,0,1-14.86,12.55,62.93,62.93,0,0,1-7.38,3.83l-1,.46h0a24.19,24.19,0,0,1-9.48-1c-7.17-2.26-13.06-7.85-20.69-8.82a13.43,13.43,0,0,0-9.06,1.82,9.8,9.8,0,0,0-1.62,1.33,4.81,4.81,0,0,1-2.39,1.74c-1.42.26-2.85-.45-4.22-.71-3.2-.59-6,1.29-8.35,3.21a25.48,25.48,0,0,1-4.87,3.37c-1.63.8-3.35,1.41-4.91,2.35a22.18,22.18,0,0,0-4.68,4.45A20.14,20.14,0,0,1,1638.36,40c-.28,0-.56.1-.83.13Zm11.95,66.75a60.38,60.38,0,0,1-17.19-.32,54.54,54.54,0,0,1-17.77-5.7,36.2,36.2,0,0,1-13.57-13l.06,0c1.38-.39,2.83-.46,4.21-.88,2.73-.82,5.13-2.43,7.57-3.85a19,19,0,0,1,8.13-2.84c2.73-.21,5.5,0,8.2-.54,3-.63,5.4-2.45,7.92-4a16.89,16.89,0,0,1,8.24-2.75c6.21-.29,11.92,2.55,17.07,5.71,3.29,2,6.5,4.14,9.82,6.11q3.53,2.1,7.12,4.08l.2.11c-.29.45-.59.9-.9,1.34-.43.6-.87,1.19-1.32,1.76C1671.14,101,1660.76,106.05,1650.11,107.45Zm37,2a18.05,18.05,0,0,1,.33,9.31c-.85,3-2.78,5.57-3.74,8.54-1.56,4.84-.89,10-.88,15a26.19,26.19,0,0,1-.88,7.53c-.93,3.1-3,5.58-4.46,8.42a19.18,19.18,0,0,0-1.67,12.39c-4.24-7.32-10.72-13.47-12.44-22a39.54,39.54,0,0,1-.6-8.06c0-2.75.13-5.51.26-8.27a48.52,48.52,0,0,1,3.18-16.34,38.16,38.16,0,0,1,9.36-13.4c.36-.34.74-.67,1.12-1l.16-.13a.25.25,0,0,0,.05-.36,50.83,50.83,0,0,1,3.08-5.79A36.07,36.07,0,0,1,1687.13,109.48Zm47.27-20.34a75.66,75.66,0,0,0,.52,8.25c.24,1.36.82,2.59,1.15,3.92.42,1.67-.52,2.82-1.61,4a12.85,12.85,0,0,0-3.48,6.87,27.76,27.76,0,0,0,.12,8.24,14,14,0,0,1,0,4.62c-.39,1.73-1.54,3-2.43,4.53A12,12,0,0,0,1727,136a53,53,0,0,1-17.75-22.35,51.27,51.27,0,0,1-4-16.84,48.92,48.92,0,0,1,2.06-15.85,62.47,62.47,0,0,1,5.72-14.55c.24-.41.48-.81.73-1.21,0-.4.07-.79.11-1.19s.12-1,.19-1.53.15-.88.23-1.31C1723.23,68.63,1733.61,76.62,1734.4,89.14Zm-90.54-50.23a20.72,20.72,0,0,0,4.16-2.63,36.47,36.47,0,0,0,3.88-4,14.06,14.06,0,0,1,4.66-3.38,38.88,38.88,0,0,0,4.93-2.43c3-1.94,5.53-5.23,9.29-5.57,1.58-.14,3,.53,4.53.78a3.92,3.92,0,0,0,3.67-1.22,11.58,11.58,0,0,1,4.22-3,13.41,13.41,0,0,1,4.94-.8c7.66.14,13.82,5.73,20.68,8.38a24.89,24.89,0,0,0,9.41,1.66c.39,0,.79,0,1.18-.05-.14.16-.28.32-.43.47a101.1,101.1,0,0,1-12.58,11.54,75.05,75.05,0,0,1-17,10.16,43.29,43.29,0,0,1-8.52,2.63,41.5,41.5,0,0,1-8.55.64,59.94,59.94,0,0,1-18.5-3.48A46.8,46.8,0,0,1,1639,40.55,21.49,21.49,0,0,0,1643.86,38.91Z"/><path class="cls-2" d="M1536.43,1585.63c-2.29-6-7.34-9.75-12.74-12.76l-1.53-.83c-.05.57-.12,1.14-.2,1.71a56,56,0,0,1-11.6,26.28,68.34,68.34,0,0,1-11.12,10.91c4.89-14.6,4.51-30.43,2.48-45.63-.64-4.78-1.42-9.55-2.24-14.3-.46-2.68-.56-8.36-4.47-8.41-3.36,0-5.91,4.06-7.24,6.67a56.54,56.54,0,0,0-3.6,10.62,36.76,36.76,0,0,1-4.61,11,43.38,43.38,0,0,1-8.37,8.8c-4.26,3.55-8.71,6.78-12.91,10.34-.06-1.08-.15-2.17-.26-3.25-.68-6.81-2-13.53-2.72-20.33-.78-7-.53-14.09-.72-21.16-.31-11.32-2.49-24-12.07-31.28-4.94-3.77-10.76-5.53-16.66-7.09l-1.64-.44c.07.57.13,1.14.18,1.7,1.45,17.42-9.7,33.72-17.67,48.52a120.12,120.12,0,0,0-5.32,11c-.64-1-1.27-2-1.88-3-2.69-4.45-5.13-9-7.66-13.57-4.88-8.75-10.23-17.64-18.2-24a38.8,38.8,0,0,0-25.86-8.23,41.31,41.31,0,0,0-19.34,5.73c-.48.28-1,.58-1.41.89.48.32.94.67,1.38,1,8.08,6.59,10.33,18.84,11.07,28.77.54,7.28.68,14.68,2.57,21.77a42.58,42.58,0,0,0,6.55,13.66,136,136,0,0,0-14.63-2.1c-10.55-1.07-21.82-1.11-31.34,4.21-7.63,4.27-13.77,11.63-21.91,14.91-.49.2-1,.38-1.5.55.22.5.44,1,.68,1.48a26.81,26.81,0,0,0,4.56,6.86c2.92,3.09,6.28,4.25,10.41,4.83a19.43,19.43,0,0,1,7.08,2.76,32.24,32.24,0,0,0-5.64,2.81c-8.23,5.2-13.75,13.58-17.82,22.29-.23.48-.45,1-.67,1.46l1.5.58a48.82,48.82,0,0,0,12.93,2.86c3.07.25,6.17.15,9.23.5a24.31,24.31,0,0,1,8.25,2.47c4.72,2.37,8.76,5.82,13.19,8.65.82.52,1.64,1,2.48,1.47-7.48,2.22-15.55,4.61-23.22,2-3.48-1.17-6.56-3.25-9.84-4.86-2.56-1.25-6-2.85-9-2.22-3.9.84-1.71,4.87-.52,7q3.15,5.76,6.32,11.5c3.73,6.8,7.5,13.55,13.77,18.34,5.87,4.47,13,7.5,19.94,9.76a79,79,0,0,0,10.15,2.58,54.22,54.22,0,0,0-12.9,11.91c-6.48,8.52-9.18,20.65-4.42,30.35.24.48.5,1,.77,1.43q.64-.48,1.32-.9a22.44,22.44,0,0,1,4-2c6-2.29,12.49-2,18.71-1.38,6.6.67,13.16,1.5,19.79,1.8s13.34.29,20-.06a203.13,203.13,0,0,0,38.54-5.76c4.87-1.22,9.78-2.54,14.53-4.22.94-.33,1.89-.68,2.82-1l.37-.14c4.61-1.83,9.16-4.18,12.69-7.74a20.51,20.51,0,0,0,3.64-5c6.2-3.31,12.83-6,19-8.9a100.52,100.52,0,0,0,33.49-25,98.22,98.22,0,0,0,20-36.38c4.72-15.92,6-32.62,9.85-48.73C1537.08,1602.07,1539.37,1593.37,1536.43,1585.63Zm-78,6.41c3.85-3.38,7.95-6.43,12-9.64,5.48-4.35,10.62-9.27,13.32-15.87s3-14.24,7.62-19.8c1.1-1.33,3.55-3.83,5.11-1.68,1.08,1.47,1.1,4,1.4,5.76.79,4.58,1.56,9.17,2.19,13.78,2.21,16.06,2.69,32.83-3.13,48.2-4.32,3.28-8.85,6.31-13.2,9.37-6.7,4.69-13.41,9.53-19.29,15.24a49.23,49.23,0,0,0-17.85-12.78c-.53-.23-1.07-.44-1.62-.64a43.48,43.48,0,0,0-6.71-1.85,49.36,49.36,0,0,1,2.8-7.53,67.87,67.87,0,0,1,12.69-18.1q1.48-1.55,3-3C1457.28,1593,1457.84,1592.53,1458.39,1592Zm-12.24,82.65a124.47,124.47,0,0,0-.39,29.88c-1.49-.52-3-1.09-4.38-1.63a136.54,136.54,0,0,0-18.18-5.65,127.27,127.27,0,0,0-32.49-3.25c-.48-.94-.92-1.89-1.34-2.87a62.36,62.36,0,0,1-4.22-14.46c-.09-.56-.17-1.12-.23-1.68-.12-1-.21-2-.27-3a46.62,46.62,0,0,1,2-15.74c.56-1.91,1.21-3.79,1.91-5.65l.93-1.55c.29-.5.59-1,.89-1.49a50.71,50.71,0,0,1,3.56-5.19,71.86,71.86,0,0,1,5.07-5.68c.69-.68,1.39-1.35,2.12-2,.41-.36.82-.72,1.24-1.07a48.39,48.39,0,0,1,9.59-6.36c.51-.26,1-.5,1.54-.73a41.46,41.46,0,0,1,7.33-2.52,40.87,40.87,0,0,1,15.42-.65c.53.07,1.07.16,1.6.26a43.68,43.68,0,0,1,5.85,1.51l1.69.61a42.64,42.64,0,0,1,6.35,3.06,48.16,48.16,0,0,1,11.59,9.64c-1.6,1.61-3.13,3.3-4.57,5.07C1451.36,1652.58,1447.7,1663.25,1446.15,1674.69Zm-24.57-143c3-7.31,4.87-15.21,4.4-23.05a60.16,60.16,0,0,1,11,3.89,25.41,25.41,0,0,1,11.46,11.18c2.76,5.31,3.9,11.3,4.32,17.22.47,6.7.12,13.42.47,20.12.34,6.32,1.41,12.56,2.3,18.81a113.42,113.42,0,0,1,1.16,11.59c-1.36,1.21-2.68,2.46-4,3.77a67,67,0,0,0-14.58,22,47.75,47.75,0,0,0-1.54,4.65,41.77,41.77,0,0,0-24.28,3.54,53.51,53.51,0,0,1-13.6-41.93,55.3,55.3,0,0,1,3-12.33c.22-.62.45-1.23.69-1.84C1407.57,1556.28,1416.37,1544.6,1421.58,1531.64Zm-78,44.81c-3.51-13.55-.89-28.09-6.82-41.1a28.18,28.18,0,0,0-6.93-9.58c12.73-7.35,29.67-7.07,41.73,1.82,8,5.85,13.31,14.39,18.08,22.85,2.44,4.31,4.76,8.69,7.26,13,1.22,2.08,2.49,4.11,3.81,6.11a58,58,0,0,0-3.43,13,55,55,0,0,0,13.57,43.63,51.35,51.35,0,0,0-9.82,6.48,126.5,126.5,0,0,1-13.4-13.1c-7.11-7.87-13.65-16.92-22.79-22.58a47.75,47.75,0,0,0-13.7-5.54A41.5,41.5,0,0,1,1343.55,1576.45Zm-46.39,43.87c-2-.46-4-.46-6-1.08a12.83,12.83,0,0,1-4.89-3,23.93,23.93,0,0,1-4.86-6.94c6.64-2.74,12-8.13,17.83-12.28a36.81,36.81,0,0,1,13.86-6.26,60.12,60.12,0,0,1,16.4-.82,119.76,119.76,0,0,1,20.53,2.76c.92.23,1.83.47,2.74.75a48.58,48.58,0,0,1,8.8,3.49c9.56,5,16.22,14,23.25,21.88a137.72,137.72,0,0,0,14.93,14.85,56,56,0,0,0-10.52,12.54l-.12.2c-8.19-7.91-18.7-13.75-28.94-17.78a104.56,104.56,0,0,0-32.17-7.1c-7.87-.46-16.36-.38-24,2.06A23,23,0,0,0,1297.16,1620.32Zm26.6,44.21c-4.14-2.65-7.94-5.82-12.28-8.16-4.72-2.57-9.59-3.28-14.9-3.47A53.78,53.78,0,0,1,1280,1650c3.41-7.27,7.81-14.25,14.11-19.31a31.35,31.35,0,0,1,9.71-5.25c.7-.24,1.4-.45,2.11-.64a63.73,63.73,0,0,1,18.1-1.79c20.67.42,42,7.14,58.42,19.88a65.32,65.32,0,0,1,5.77,5,.43.43,0,0,1,0,.07.84.84,0,0,0-.57.52l-.51,1.32c-.75,2-1.44,4-2,6.06a54.8,54.8,0,0,0-1.8,8.53,44.43,44.43,0,0,0,0,10.18,77.85,77.85,0,0,1-10.28-4.44,60.54,60.54,0,0,0-22.66-6.42c-7.81-.53-15.22.9-22.66,3A40.62,40.62,0,0,1,1323.76,1664.53Zm4.15,44.26a77.38,77.38,0,0,1-20-8.17,35.92,35.92,0,0,1-8.66-7,54.42,54.42,0,0,1-6.43-9.49c-2-3.61-4-7.25-6-10.88L1284,1668c-.43-.77-1.32-2-1.27-2.91.09-1.63,2.07-1.27,3-1.12,7,1,12.28,6.62,19.28,7.79,7.3,1.23,14.58-1,21.51-3l1-.29,2.43-.68a61.77,61.77,0,0,1,19.53-2.53,53.91,53.91,0,0,1,13.28,2.37,90.49,90.49,0,0,1,12.32,5.29,53.32,53.32,0,0,0,8.42,3.35,53.44,53.44,0,0,0,1.14,5.74,61.21,61.21,0,0,0,4.4,12.09c-1.14.05-2.27.11-3.41.2a113.56,113.56,0,0,0-35.85,8.42,99.5,99.5,0,0,0-14.73,7.56C1332.63,1709.9,1330.25,1709.4,1327.91,1708.79Zm120,24.07a31.19,31.19,0,0,1-9.23,6.07q-1.73.78-3.48,1.44l-1.15.43a167.86,167.86,0,0,1-17.73,5.14,201.12,201.12,0,0,1-38.77,5.32q-9.71.39-19.4-.17c-6.54-.37-13-1.31-19.52-1.87s-13-.4-19,2.33a22.87,22.87,0,0,0-2.58,1.39c-4.26-8.86-1.79-20,3.88-27.82a52.46,52.46,0,0,1,14.42-13.16c.71-.46,1.43-.9,2.15-1.33a100.85,100.85,0,0,1,12.33-6.2,112.23,112.23,0,0,1,40-8.76l1.72-.05a125.48,125.48,0,0,1,30.44,3.05,140,140,0,0,1,19.5,6c1.46.56,3,1.12,4.47,1.62.56.19,1.12.37,1.69.54a38.59,38.59,0,0,0,4,1c.4,1.32.76,2.65,1,4,.12.55.22,1.11.32,1.66.83,4.91.67,9.82-1.46,14.21a17.73,17.73,0,0,1-1.62,2.72A19.24,19.24,0,0,1,1447.91,1732.86Zm86.14-125.09c-1.89,7.89-3.39,15.82-4.71,23.83a241.94,241.94,0,0,1-4.79,23.88,97.78,97.78,0,0,1-51.86,62.3c-6.11,3-12.64,5.61-18.83,8.77a26.46,26.46,0,0,0,.67-13.85c-.11-.56-.22-1.12-.35-1.67q-.33-1.47-.75-2.91c-.16-.57-.34-1.13-.52-1.7-.59-.08-1.18-.19-1.77-.31a36.7,36.7,0,0,1-3.7-1,122.64,122.64,0,0,1-.07-27.22c1.15-10.53,3.86-20.69,9.71-29.45q.36-.54.75-1.08c.59-.84,1.21-1.66,1.86-2.47a69.6,69.6,0,0,1,4.66-5.18c.36-.38.73-.74,1.1-1.11,6-5.84,12.9-10.76,19.76-15.56,3.45-2.42,7-4.84,10.49-7.39.84-.61,1.68-1.24,2.51-1.87a75,75,0,0,0,13-12.23,58.18,58.18,0,0,0,12.27-27c4.84,2.73,9.38,6.12,11.41,11.47C1537.51,1593,1535.71,1600.79,1534.05,1607.77Z"/><path class="cls-2" d="M1520.44,1648.22a14.79,14.79,0,0,1-2.55,8.89c-.29.43-1,0-.7-.41a14,14,0,0,0,2.45-8.48C1519.62,1647.7,1520.43,1647.7,1520.44,1648.22Z"/><path class="cls-2" d="M1528.66,1604.16c.47,6-1.66,11.85-3.23,17.54l-5.07,18.39a.41.41,0,0,1-.78-.22q2.46-8.88,4.9-17.77c1.6-5.8,3.85-11.84,3.37-17.94C1527.81,1603.64,1528.62,1603.65,1528.66,1604.16Z"/><path class="cls-2" d="M1512.93,1672.25l3.68-6.88c.25-.46,1,0,.7.41l-3.68,6.88C1513.38,1673.12,1512.69,1672.71,1512.93,1672.25Z"/><path class="cls-2" d="M1508.33,1645.44a114.84,114.84,0,0,1-16.6,28.73c-.32.4-.89-.17-.57-.57a113.6,113.6,0,0,0,16.39-28.37C1507.74,1644.75,1508.52,1645,1508.33,1645.44Z"/><path class="cls-2" d="M1494.57,1565a212.86,212.86,0,0,1-3.79,29.12c-.1.51-.88.29-.77-.21a211.33,211.33,0,0,0,3.75-28.91C1493.8,1564.46,1494.6,1564.46,1494.57,1565Z"/><path class="cls-2" d="M1489.17,1604.07c.35-1.44.69-2.89,1-4.34.12-.5.9-.29.78.22-.35,1.44-.7,2.89-1,4.34C1489.83,1604.79,1489.05,1604.58,1489.17,1604.07Z"/><path class="cls-2" d="M1490,1678.91c.3-.43,1,0,.7.4q-2.61,3.68-5.2,7.36c-.29.42-1,0-.69-.41Z"/><path class="cls-2" d="M1494.6,1630.76a20.66,20.66,0,0,0-9.35,9.31c-.24.47-.93.06-.7-.4a21.4,21.4,0,0,1,9.64-9.61C1494.65,1629.83,1495.06,1630.52,1494.6,1630.76Z"/><path class="cls-2" d="M1495.07,1645a93.45,93.45,0,0,1-12,18.56c-.33.4-.9-.18-.57-.57a92.5,92.5,0,0,0,11.9-18.4C1494.61,1644.11,1495.3,1644.52,1495.07,1645Z"/><path class="cls-2" d="M1482.7,1573l1-3.38a.4.4,0,0,1,.78.21l-1,3.39A.41.41,0,0,1,1482.7,1573Z"/><path class="cls-2" d="M1478.34,1695.51a7.78,7.78,0,0,1,4.72-4.71c.49-.18.7.6.22.77a6.91,6.91,0,0,0-4.16,4.16C1479,1696.21,1478.16,1696,1478.34,1695.51Z"/><path class="cls-2" d="M1478.83,1600l3.57-6.68c.24-.46.94-.06.7.4l-3.57,6.68C1479.28,1600.87,1478.58,1600.46,1478.83,1600Z"/><path class="cls-2" d="M1480,1668.88c.28-.44,1,0,.7.4l-1.89,2.94c-.28.43-1,0-.7-.41Z"/><path class="cls-2" d="M1480.24,1581.17a40.38,40.38,0,0,1-6.34,8.37c-.36.37-.93-.2-.56-.57a40.33,40.33,0,0,0,6.21-8.2A.4.4,0,0,1,1480.24,1581.17Z"/><path class="cls-2" d="M1474.56,1681.37c.31-.41,1,0,.7.41l-2.88,3.89c-.3.41-1,0-.69-.41Z"/><path class="cls-2" d="M1463.87,1662.47a80.5,80.5,0,0,1,16.17-19.84c.38-.35,1,.22.56.57a80.07,80.07,0,0,0-16,19.68A.4.4,0,0,1,1463.87,1662.47Z"/><path class="cls-2" d="M1475.85,1603.92a110.48,110.48,0,0,0-13,22.08c-.21.47-.91.06-.7-.41a111.28,111.28,0,0,1,13-22.08C1475.47,1603.1,1476.17,1603.5,1475.85,1603.92Z"/><path class="cls-2" d="M1458,1639a5.9,5.9,0,0,1-.24,2.43c-.16.49-.93.28-.78-.22a4.69,4.69,0,0,0,.11-2.75c-.11-.34-.12-.41-.43-.37a1.83,1.83,0,0,0-.63.3,3.18,3.18,0,0,0-.9.89c-.29.43-1,0-.69-.41a4,4,0,0,1,1.49-1.35c.41-.2,1-.48,1.47-.19S1458,1638.49,1458,1639Z"/><path class="cls-2" d="M1446.32,1651.16c0-1.21.87-3.17,2.36-3s1.26,2.49,1.28,3.55a.4.4,0,0,1-.8,0c0-.65.22-2.2-.39-2.66-.46-.35-1,.3-1.29.66a2.39,2.39,0,0,0-.36,1.4C1447.14,1651.68,1446.34,1651.68,1446.32,1651.16Z"/><path class="cls-2" d="M1449.11,1637.87a19.89,19.89,0,0,1-.11,5.17c-.08.51-.85.29-.78-.22.13-.88.66-5.6-.25-5.81-.57-.14-1.39,2.06-1.52,2.45a8,8,0,0,0-.35,2.42.41.41,0,0,1-.81,0,8.57,8.57,0,0,1,.91-3.91c.32-.62,1-2.08,1.86-2.11S1449,1637.24,1449.11,1637.87Z"/><path class="cls-2" d="M1469.44,1591.56a61.38,61.38,0,0,0-23.34,24.33c-.25.46-.94,0-.7-.4a62.18,62.18,0,0,1,23.63-24.62A.4.4,0,0,1,1469.44,1591.56Z"/><path class="cls-2" d="M1445.71,1661c-.73-.44-1.14-.33-1.24.34-.19.48-1,.27-.78-.21.26-.67.59-1.41,1.37-1.58a1.11,1.11,0,0,1,1.28.62c.81,1.68-.54,3.88-1.44,5.2-.29.43-1,0-.7-.41a10.14,10.14,0,0,0,1.19-2.1,3.54,3.54,0,0,0,.34-1.52C1445.72,1661.23,1445.72,1661.12,1445.71,1661Z"/><path class="cls-2" d="M1444.33,1573.09c.52,2.41,1.05,4.82,1.57,7.24.11.5-.67.72-.78.21q-.78-3.61-1.57-7.23C1443.44,1572.8,1444.22,1572.58,1444.33,1573.09Z"/><path class="cls-2" d="M1443.58,1526.83c-.34-1.13-.68-2.25-1-3.38-.16-.5.62-.71.77-.21l1,3.37A.41.41,0,0,1,1443.58,1526.83Z"/><path class="cls-2" d="M1442.13,1567.4c-.65-10.88,4.9-21.47,2.54-32.32-.11-.51.66-.72.77-.22,2.39,11-3.16,21.57-2.5,32.54C1443,1567.92,1442.16,1567.91,1442.13,1567.4Z"/><path class="cls-2" d="M1442.79,1629.89a2.72,2.72,0,0,0-.44.27c0-.17-.1-.34-.16-.51Z"/><path class="cls-2" d="M1442.93,1671.08a.64.64,0,0,0-1.15-.28,2.72,2.72,0,0,0-.53,1.2.41.41,0,0,1-.78-.22c.29-1,1.1-2.57,2.44-2a1.7,1.7,0,0,1,.86,1.32,17,17,0,0,1,.3,2.57c0,.52-.78.51-.81,0A10,10,0,0,0,1442.93,1671.08Z"/><path class="cls-2" d="M1440.34,1632.89a3.7,3.7,0,0,1,2-3.69.41.41,0,0,1,.59.24,10,10,0,0,1,.23,5.64.41.41,0,0,1-.78-.22,9.13,9.13,0,0,0-.07-4.7,2.72,2.72,0,0,1,.44-.27l-.6-.24c.06.17.11.34.16.51a2.93,2.93,0,0,0-1.21,2.73C1441.19,1633.41,1440.38,1633.41,1440.34,1632.89Z"/><path class="cls-2" d="M1440.11,1685a4,4,0,0,1,.26-2.54c.24-.52.76-1.41,1.47-1.28s1.14,1.38,1.33,2a6.34,6.34,0,0,1,.2,2.87c-.08.51-.86.29-.79-.21a4.74,4.74,0,0,0-.6-3.38c-.3-.38-.42-.39-.67,0a3.66,3.66,0,0,0-.38.83,3.09,3.09,0,0,0,0,1.54C1441,1685.3,1440.22,1685.52,1440.11,1685Z"/><path class="cls-2" d="M1439.19,1696.93l-.35.2,0-.09a.36.36,0,0,1,.24-.19C1439.14,1696.9,1439.17,1696.93,1439.19,1696.93Z"/><path class="cls-2" d="M1438.44,1654.83c-.35-1.74-.07-5.07,2-5.76,2.35-.79,1.9,3.79,1.84,4.89,0,.52-.83.52-.81,0a20.19,20.19,0,0,0,0-2.46,3.06,3.06,0,0,0-.13-1.14c-.35-.62-.81-.55-1.2-.12a5.21,5.21,0,0,0-.92,4.37C1439.32,1655.12,1438.54,1655.34,1438.44,1654.83Z"/><path class="cls-2" d="M1439.19,1697.73c-.79,0-1-1.08-1.1-1.71a3.66,3.66,0,0,1,.14-2.55c1.07-1.7,3.1,1.22,3.6,2.1a.41.41,0,0,1-.7.41,7.12,7.12,0,0,0-.94-1.31,6,6,0,0,0-.44-.43c-.13-.12-.63-.5-.83-.37s-.16,1.12-.13,1.4a9,9,0,0,0,.33,1.58.36.36,0,0,0-.24.19l0,.09.35-.2s0,0-.07-.08a.42.42,0,0,1,.46.6l0,.09A.39.39,0,0,1,1439.19,1697.73Z"/><path class="cls-2" d="M1437.52,1637.3a12.78,12.78,0,0,1,.84,7.36c-.09.51-.87.29-.77-.22a11.89,11.89,0,0,0-.64-6.42,7.39,7.39,0,0,1,.42-.66Z"/><path class="cls-2" d="M1436.68,1637.36h.69a7.39,7.39,0,0,0-.42.66Q1436.83,1637.69,1436.68,1637.36Z"/><path class="cls-2" d="M1436.08,1665c-.11-1.61.84-3.69,2.54-4.14,2-.52,1.8,3.42,1.75,4.42,0,.52-.84.52-.81,0a11.24,11.24,0,0,0-.11-2.39,2.65,2.65,0,0,0-.17-.8c0-.27-.17-.37-.45-.28a.49.49,0,0,0-.53.11,3.33,3.33,0,0,0-1.41,3.08C1436.93,1665.54,1436.12,1665.53,1436.08,1665Z"/><path class="cls-2" d="M1435.76,1642.62a6.17,6.17,0,0,1,.92-5.66c.15-.22.55-.31.69,0,.05.11.11.23.15.34l-.15.06h-.69q.15.33.27.66a5.45,5.45,0,0,0-.42,4.39C1436.69,1642.91,1435.91,1643.12,1435.76,1642.62Z"/><path class="cls-2" d="M1436.47,1671c-.33-.07-.49,0-.48.32a2.58,2.58,0,0,0-.07,1,5.21,5.21,0,0,0,.53,2.1c.22.47-.48.88-.7.41a6,6,0,0,1-.59-3.36c.09-.7.39-1.66,1.25-1.68s1.6,1.25,2,1.94a7.84,7.84,0,0,1,.88,3.18c0,.51-.76.51-.8,0a7.06,7.06,0,0,0-1.26-3.57C1437.07,1670.9,1436.83,1670.78,1436.47,1671Z"/><path class="cls-2" d="M1432.31,1686.22a2.1,2.1,0,0,0,.21,1.41c.23.46-.47.87-.7.41-.45-.89-.63-3.23.87-3.32.68,0,1,.62,1.21,1.14.4.86.78,1.73,1.15,2.61.2.48-.58.68-.78.21-.37-.89-.76-1.78-1.18-2.65,0-.08-.16-.43-.26-.46C1432.51,1685.49,1432.36,1686,1432.31,1686.22Z"/><path class="cls-2" d="M1433.55,1652.4c-.34-.54-.64-.87-1.32-.33a2.25,2.25,0,0,0-.5.74c-.09.17-.75,1.87-.49,1.94a.41.41,0,0,1-.22.78c-.93-.24-.58-1.56-.37-2.21a3.5,3.5,0,0,1,1.74-2.32c1-.38,1.66.59,2.09,1.39a7.89,7.89,0,0,1,.9,3.78.41.41,0,0,1-.81,0A6.94,6.94,0,0,0,1433.55,1652.4Z"/><path class="cls-2" d="M1430.39,1679.43a.4.4,0,0,1-.78.21Z"/><path class="cls-2" d="M1430.41,1631.88c0,.51-.76.51-.8,0a10.35,10.35,0,0,1,.42-4c.22-.65.55-2.05,1.39-2.16s1.2,1.13,1.35,1.76a9.85,9.85,0,0,1,0,4c-.1.51-.88.29-.78-.22a9.06,9.06,0,0,0,0-3.16,2.94,2.94,0,0,0-.29-1.11c-.33-.43-.31-.29-.59.09C1430.32,1628.32,1430.3,1630.45,1430.41,1631.88Z"/><path class="cls-2" d="M1429.61,1679.64a7.51,7.51,0,0,1-.21-.94.42.42,0,0,1,.77,0c.07.23.14.45.22.68Z"/><path class="cls-2" d="M1429.36,1676.3a5.25,5.25,0,0,1,1-2.7c1.44-1.31,2.33,2.4,2.61,3.09.19.48-.59.69-.78.22-.27-.68-.54-1.37-.82-2-.13-.3-.16-.67-.55-.51-.17.07-.35.8-.42,1a6.89,6.89,0,0,0,0,4.07c-.08-.23-.15-.45-.22-.68a.42.42,0,0,0-.77,0A7.43,7.43,0,0,1,1429.36,1676.3Z"/><path class="cls-2" d="M1429.4,1678.7a7.51,7.51,0,0,0,.21.94l-.22-.67A.35.35,0,0,1,1429.4,1678.7Z"/><path class="cls-2" d="M1429.33,1616.67c.17.49-.61.7-.78.21l-.51-1.44c-.18-.49.6-.7.77-.22Z"/><path class="cls-2" d="M1429,1717.77c-.52,0-.52-.86,0-.81l5.32.49c.52,0,.52.85,0,.8Z"/><path class="cls-2" d="M1430.84,1692.74c-.56-.57-2.42-2.9-2.93-1.21-.34,1.12.75,2.16,1.67,2.56.48.2.07.89-.41.69-1.39-.59-2.81-2.51-1.83-4,1.25-1.91,3.15.47,4.07,1.39C1431.78,1692.54,1431.2,1693.11,1430.84,1692.74Z"/><path class="cls-2" d="M1427.49,1660.21a.22.22,0,0,1-.06.07l-.28.28a.19.19,0,0,1,0-.07A.35.35,0,0,1,1427.49,1660.21Z"/><path class="cls-2" d="M1426.77,1660.48c-.21-.65-.42-1.89.11-2.44a1.1,1.1,0,0,1,1.66.28,5.18,5.18,0,0,1,.67,2.56c0,.52-.77.51-.81,0a4,4,0,0,0-.53-2.1c-.38-.47-.48,0-.48.39a5,5,0,0,1,.1,1,.35.35,0,0,0-.32.28.19.19,0,0,0,0,.07l.28-.28a.22.22,0,0,0,.06-.07.39.39,0,0,1,.45.49C1427.75,1661.45,1426.93,1661,1426.77,1660.48Z"/><path class="cls-2" d="M1427.12,1641.43c-.81.53-.36,3.3-.23,4.11a15.87,15.87,0,0,0,.76,2.88c.17.49-.61.7-.78.22a15.38,15.38,0,0,1-.95-5.66c0-.81.08-2.69,1.08-3,.7-.22,1,.4,1.17,1a35.41,35.41,0,0,1,.91,6c.07.51-.71.73-.78.21-.15-1.1-.31-2.21-.48-3.31-.08-.5-.15-1-.23-1.51l-.15-.9C1427.46,1641,1427.35,1641,1427.12,1641.43Z"/><path class="cls-2" d="M1426.07,1671.11a12,12,0,0,1-.4-1.15c.18-.26.64-.29.7.1.13.22.25.44.38.65Z"/><path class="cls-2" d="M1425.26,1667a4.61,4.61,0,0,1,.62-2.76c1.44-1.56,2.83,2,3.09,2.91a.4.4,0,0,1-.78.21,4.53,4.53,0,0,0-1-2.17c-.12-.37-.31-.4-.55-.1-.26,0-.39.19-.38.43a4,4,0,0,0-.14,1.25,9.34,9.34,0,0,0,.69,4h0c-.13-.21-.25-.43-.38-.65-.06-.39-.52-.36-.7-.1A9.93,9.93,0,0,1,1425.26,1667Z"/><path class="cls-2" d="M1426.07,1671.11l.68-.4h0c0,.07,0,.13.08.19.17.42-.4.61-.67.39a1.41,1.41,0,0,1-.58-1,.4.4,0,0,1,.07-.31A12,12,0,0,0,1426.07,1671.11Z"/><path class="cls-2" d="M1424.93,1655.86a3.63,3.63,0,0,1-.69-2.54c.07-.62.28-1.4,1-1.57a1.71,1.71,0,0,1,1.73,1,5.15,5.15,0,0,1,.6,2.8c0,.52-.83.52-.8,0s-.18-3.18-1.27-2.93c-.39.09-.41.4-.45.78a3.23,3.23,0,0,0,0,.76,3.15,3.15,0,0,0,.56,1.27C1425.93,1655.88,1425.23,1656.28,1424.93,1655.86Z"/><path class="cls-2" d="M1424.37,1602.17q.8,3.12,1.58,6.26a.4.4,0,0,1-.77.21l-1.59-6.26C1423.47,1601.88,1424.25,1601.66,1424.37,1602.17Z"/><path class="cls-2" d="M1423.25,1635.38a3.28,3.28,0,0,0,.33,1.82c.23.46-.47.87-.7.4a4.25,4.25,0,0,1-.34-2.85,3.12,3.12,0,0,1,1.49-2.16c.81-.29,1.22.49,1.48,1.11a11.23,11.23,0,0,1,.85,3.78c0,.52-.78.52-.81,0a10.67,10.67,0,0,0-.35-2.23c-.08-.3-.18-.6-.29-.9s-.17-.79-.61-.81C1423.65,1633.5,1423.3,1634.86,1423.25,1635.38Z"/><path class="cls-2" d="M1429.25,1555.81a82.91,82.91,0,0,0-6.1,35.29c0,.52-.79.51-.81,0a83.65,83.65,0,0,1,6.13-35.51C1428.66,1555.12,1429.44,1555.33,1429.25,1555.81Z"/><path class="cls-2" d="M1422.12,1693.06a4.17,4.17,0,0,0-.56-.37l.6-.24A4.17,4.17,0,0,0,1422.12,1693.06Z"/><path class="cls-2" d="M1421.56,1692.69a4.17,4.17,0,0,1,.56.37,3.42,3.42,0,0,0,.31,1.37c.2.48-.49.89-.7.41a4.64,4.64,0,0,1-.35-2.6.4.4,0,0,1,.59-.24,5.17,5.17,0,0,1,1.88,1.75c.28.44-.41.84-.7.41a4.16,4.16,0,0,0-1-1.1,4.17,4.17,0,0,1,0-.61Z"/><path class="cls-2" d="M1421.65,1684.49a6.67,6.67,0,0,0,.7,1.76.41.41,0,0,1-.7.41,7.2,7.2,0,0,1-.89-2.63c-.08-.56-.26-1.69.15-2.19s1-.13,1.33.21a27.34,27.34,0,0,1,2.31,2.63c.32.41-.25,1-.57.57s-.84-1-1.29-1.53c-.22-.25-.44-.49-.67-.73s-.36-.54-.5-.38S1421.58,1684.16,1421.65,1684.49Z"/><path class="cls-2" d="M1422.43,1659.62c-.18-.12-.48-.3-.6,0s.1.74.13,1c.08.55.15,1.1.23,1.66s-.7.72-.77.21a19.16,19.16,0,0,1-.4-2.92.88.88,0,0,1,1-1c1.39.17,2.39,1.85,2.57,3.09.07.51-.71.73-.78.22A3.14,3.14,0,0,0,1422.43,1659.62Z"/><path class="cls-2" d="M1421,1643.55a5.44,5.44,0,0,0-.16.64,4.62,4.62,0,0,0-.52-.46Z"/><path class="cls-2" d="M1420.37,1648.64a8.17,8.17,0,0,1-.29-5l.19,0a4.62,4.62,0,0,1,.52.46,7.52,7.52,0,0,0,.36,4.24C1421.34,1648.91,1420.56,1649.12,1420.37,1648.64Z"/><path class="cls-2" d="M1420.84,1643.16a5.61,5.61,0,0,1,2.13,4.91c0,.51-.84.51-.8,0a4.88,4.88,0,0,0-1.38-3.88,5.44,5.44,0,0,1,.16-.64l-.68.18-.19,0,.09-.35A.4.4,0,0,1,1420.84,1643.16Z"/><path class="cls-2" d="M1417.94,1672.66a3.18,3.18,0,0,0-.11.38c-.07-.07-.14-.1-.17-.09Z"/><path class="cls-2" d="M1417.08,1672.68a.65.65,0,0,1,1.11-.36,7.51,7.51,0,0,1,1.12,1.38l1.18,1.5c.32.4-.25,1-.57.57a28.75,28.75,0,0,0-2.09-2.73,3.18,3.18,0,0,1,.11-.38l-.28.29s.1,0,.17.09a4.74,4.74,0,0,0,1.7,4c.39.35-.18.92-.57.57C1417.69,1676.51,1416.6,1674.42,1417.08,1672.68Z"/><path class="cls-2" d="M1417.6,1629.51a3.66,3.66,0,0,0-.74,3c.09.51-.69.73-.78.22a4.81,4.81,0,0,1,.23-2.55,3.08,3.08,0,0,1,1.27-1.74c1.62-.73,1.76,2.88,1.66,3.73-.06.51-.87.51-.81,0a5.28,5.28,0,0,0,0-1.73,6.08,6.08,0,0,0-.22-.76C1418,1629.3,1417.93,1629.2,1417.6,1629.51Z"/><path class="cls-2" d="M1429.86,1531.91a101.42,101.42,0,0,0-19.94,42.82c-.1.51-.88.29-.78-.22a102.65,102.65,0,0,1,20.14-43.17C1429.61,1530.94,1430.18,1531.51,1429.86,1531.91Z"/><path class="cls-2" d="M1416.8,1657.2a15,15,0,0,1-2-5.92h.08a10.42,10.42,0,0,1,.87.89,13.8,13.8,0,0,0,1.79,4.63A.41.41,0,0,1,1416.8,1657.2Z"/><path class="cls-2" d="M1415.63,1664.75a5.83,5.83,0,0,0,.42,2.11c.18.49-.6.7-.78.22a6.68,6.68,0,0,1-.38-3.31c.06-.5.15-1.65.77-1.85s1.18.68,1.49,1a10.67,10.67,0,0,1,1.59,2.6c.2.47-.49.88-.7.41a10.56,10.56,0,0,0-.91-1.69,5.07,5.07,0,0,0-1.26-1.5c-.16-.18-.15-.13,0,.14a4.15,4.15,0,0,0-.16.63A4.76,4.76,0,0,0,1415.63,1664.75Z"/><path class="cls-2" d="M1415.53,1651a11.58,11.58,0,0,0,.18,1.18,10.42,10.42,0,0,0-.87-.89Z"/><path class="cls-2" d="M1415.53,1651l-.69.29h-.08c0-.1,0-.2,0-.3,0-.37.46-.5.69-.29a12,12,0,0,1,3.16,4.78c.18.49-.6.7-.78.22a10.91,10.91,0,0,0-2.08-3.53A11.58,11.58,0,0,1,1415.53,1651Z"/><path class="cls-2" d="M1413.1,1690.67a6.21,6.21,0,0,1,1.13-1.94,3.33,3.33,0,0,1,1.91-1.24c.51-.1.72.68.21.78a3.52,3.52,0,0,0-2.19,2c-.05.09-.28.46-.22.49s.64-.21.75-.26l1.77-.72c.49-.19.7.59.22.78l-1.55.63a3.6,3.6,0,0,1-1.19.38C1413.4,1691.63,1412.94,1691.25,1413.1,1690.67Z"/><path class="cls-2" d="M1414,1646.08c-1.2-.5-.72,2.7-.59,3.24s-.66.72-.78.21c-.25-1.07-.72-3.87.75-4.33s2.72,2.26,3.15,3.27c.2.48-.5.89-.7.41a9.69,9.69,0,0,0-.71-1.4C1414.91,1647.05,1414.52,1646.27,1414,1646.08Z"/><path class="cls-2" d="M1411.49,1599.33a6,6,0,0,0,1.34,4.54c.33.39-.24,1-.57.57a6.83,6.83,0,0,1-1.58-5.11C1410.73,1598.82,1411.54,1598.81,1411.49,1599.33Z"/><path class="cls-2" d="M1411.3,1640.4c.1.51-.68.73-.77.22a21.23,21.23,0,0,1-.43-4.42c0-.75.2-1.61,1.05-1.79,2.54-.55,2.16,3.36,3.54,4.22.44.27,0,1-.41.69-1.22-.75-1.07-2-1.67-3.19-.29-.57-1.15-1.53-1.7-.22a4.29,4.29,0,0,0,0,1.47A23.48,23.48,0,0,0,1411.3,1640.4Z"/><path class="cls-2" d="M1409.25,1655c-.19-.51-.3-1.3.28-1.6.74-.39,1.65.59,2.09,1.08A6.48,6.48,0,0,1,1413,1657a.41.41,0,0,1-.78.22,5.55,5.55,0,0,0-1-2c-.19-.24-1-1.22-1.32-1s1.63,3.49,1.83,3.84a.4.4,0,0,1-.69.4A20.08,20.08,0,0,1,1409.25,1655Z"/><path class="cls-2" d="M1408.14,1685.33l-.29.29.06-.49A.63.63,0,0,0,1408.14,1685.33Z"/><path class="cls-2" d="M1408.08,1583.83a20.09,20.09,0,0,0,1,6.67c.16.5-.62.71-.78.21a20.83,20.83,0,0,1-1-6.88A.41.41,0,0,1,1408.08,1583.83Z"/><path class="cls-2" d="M1408,1674.47c-.42-.46-1.11-1.17-.61-1.82,1-1.27,3.43.47,4.2,1.21.37.36-.2.93-.58.57a4.81,4.81,0,0,0-1.44-1c-.19-.09-1.53-.66-1.51-.15,0,.35,1,1.08,1.2,1.3a7.54,7.54,0,0,0,1.52,1c.46.24,0,.93-.41.7A8.21,8.21,0,0,1,1408,1674.47Z"/><path class="cls-2" d="M1408.14,1685.33c.66.36,2-.16,2.6-.38a16.54,16.54,0,0,0,2.22-1.13.4.4,0,0,1,.41.69c-1.35.78-4.87,2.91-6.15,1a.41.41,0,0,1,.06-.49c1.74-1.76,3.75-3.35,6.33-3.39.52,0,.51.79,0,.8-2.22,0-3.95,1.38-5.47,2.87a.63.63,0,0,1-.23-.2l-.06.49Z"/><path class="cls-2" d="M1406.24,1702.52a.41.41,0,0,1,0,.81h-5.81a.41.41,0,0,1,0-.81Z"/><path class="cls-2" d="M1405.74,1653.48a3.29,3.29,0,0,0-.1.68l-.57-.5Z"/><path class="cls-2" d="M1406.22,1658a5.06,5.06,0,0,1-1.33-4.33l.18,0,.57.5a4.21,4.21,0,0,0,1.15,3.23C1407.14,1657.77,1406.58,1658.34,1406.22,1658Z"/><path class="cls-2" d="M1405,1653.26a.41.41,0,0,1,.68-.17,11.81,11.81,0,0,1,2.57,3c.27.44-.42.84-.7.4a11,11,0,0,0-1.87-2.3,3.29,3.29,0,0,1,.1-.68l-.67.18-.18,0C1404.91,1653.51,1404.93,1653.39,1405,1653.26Z"/><path class="cls-2" d="M1404,1690.43a.67.67,0,0,0-.18.2v-.41A.6.6,0,0,0,1404,1690.43Z"/><path class="cls-2" d="M1407.51,1690.13a4.66,4.66,0,0,0-2.1-.17,3.43,3.43,0,0,0-1.39.47.6.6,0,0,1-.18-.21v.41a.67.67,0,0,1,.18-.2,6.51,6.51,0,0,0,2.07.68,14.06,14.06,0,0,0,2.51.36c.51,0,.52.84,0,.81a15.34,15.34,0,0,1-3.81-.7c-.5-.16-1.72-.4-1.7-1.15s1.12-1,1.62-1.13a5.44,5.44,0,0,1,3,0A.41.41,0,0,1,1407.51,1690.13Z"/><path class="cls-2" d="M1402.33,1663.38a.77.77,0,0,0-.56.13c0-.21,0-.43.08-.63Z"/><path class="cls-2" d="M1402.33,1663.38l-.48-.5c0,.2,0,.42-.08.63a.77.77,0,0,1,.56-.13,6.9,6.9,0,0,0,3.72,1.85c.52.08.3.86-.21.78a7.66,7.66,0,0,1-4.56-2.56.42.42,0,0,1,.08-.64,1.73,1.73,0,0,1,1.77,0c1.22.47,2.41,1,3.61,1.53.48.21.07.9-.41.7l-2.16-.92A6.82,6.82,0,0,0,1402.33,1663.38Z"/><path class="cls-2" d="M1401.73,1641.53a3.52,3.52,0,0,0,1.41,2.86c.41.32-.17.89-.57.58-1.23-1-2.26-3.17-1.41-4.69,1-1.71,3,1.8,3.26,2.53.18.48-.6.69-.78.21a5,5,0,0,0-1.06-1.74c-.09-.1-.54-.62-.72-.59S1401.73,1641.38,1401.73,1641.53Z"/><path class="cls-2" d="M1401,1670.08c.06.19.12.37.19.54a1.27,1.27,0,0,0-.47,0Z"/><path class="cls-2" d="M1400.25,1670.3a.41.41,0,0,1,.28-.5c1.94-.28,3.55,2.36,4.54,3.73.3.42-.4.82-.7.41-.56-.78-1.95-2.93-3.15-3.32-.07-.17-.13-.35-.19-.54l-.28.5a1.27,1.27,0,0,1,.47,0,11.17,11.17,0,0,0,3.5,4.76c.41.32-.16.89-.57.57A11.86,11.86,0,0,1,1400.25,1670.3Z"/><path class="cls-2" d="M1398.77,1675.93c.17-.07.24,0,.21.08s0,0,0,.07Z"/><path class="cls-2" d="M1398.42,1675.26c.49-.45,1.21.25,1.58.54a10.23,10.23,0,0,1,1.79,1.75c.33.4-.24,1-.57.57a9.63,9.63,0,0,0-2.11-2l-.1-.07s0,0,0-.07,0-.15-.21-.08l.24.15c0,.15,0,.4.08.53a1.86,1.86,0,0,0,.82,1,.4.4,0,0,1-.4.7,2.66,2.66,0,0,1-1.2-1.44C1398.16,1676.38,1398,1675.61,1398.42,1675.26Z"/><path class="cls-2" d="M1395,1681.05a4.52,4.52,0,0,0,4,1.19c.51-.09.72.69.21.78a5.38,5.38,0,0,1-5.12-1.82l.11-.1A8.24,8.24,0,0,1,1395,1681.05Z"/><path class="cls-2" d="M1399.32,1649.25c-1.27-.08-3.11-.55-3-2.2a1.29,1.29,0,0,1,2.32-.65.41.41,0,0,1-.7.41c-.12-.21-.42-.18-.61-.06a.64.64,0,0,0-.08.86c.38.72,1.33.79,2,.83C1399.83,1648.47,1399.84,1649.28,1399.32,1649.25Z"/><path class="cls-2" d="M1395.68,1688.9a1.57,1.57,0,0,1,1.16-1.56,3.18,3.18,0,0,1,2.57.67c.44.27,0,1-.41.69a3,3,0,0,0-1.57-.62c-.39,0-1.18.2-.89.92.07.17.31.31.46.41a3.77,3.77,0,0,0,3.11.3.41.41,0,0,1,.22.78,4.67,4.67,0,0,1-3.15-.1C1396.53,1690.12,1395.76,1689.67,1395.68,1688.9Z"/><path class="cls-2" d="M1394.46,1680.49a3.84,3.84,0,0,0,.5.56,8.24,8.24,0,0,0-.85,0Z"/><path class="cls-2" d="M1399.46,1682a14.11,14.11,0,0,0-4.5-1,3.84,3.84,0,0,1-.5-.56l-.35.61-.11.1-.23-.3c-.21-.27.08-.57.34-.61a12.84,12.84,0,0,1,5.57.94C1400.17,1681.39,1400,1682.17,1399.46,1682Z"/><path class="cls-2" d="M1392.75,1658.41c-.52.2-.59.38-.22.54.31.55,1.78.66,2.34.72a16.42,16.42,0,0,0,2.53.09.41.41,0,0,1,0,.81,12.56,12.56,0,0,1-4.36-.44c-.55-.2-1.68-.69-1.6-1.44s1.43-1.29,2-1.49a5.41,5.41,0,0,1,3.26,0c.5.16.29.94-.21.78a4.56,4.56,0,0,0-3.5.27Z"/><path class="cls-2" d="M1395,1619.45a15,15,0,0,1-5.28-7.37c-.16-.5.62-.71.78-.22a14.17,14.17,0,0,0,4.9,6.89C1395.77,1619.06,1395.37,1619.76,1395,1619.45Z"/><path class="cls-2" d="M1391.16,1670.31l.41-.07a8.35,8.35,0,0,0,1.2-.28,16.22,16.22,0,0,0,2.21-.8c.47-.2.88.49.41.7-.73.32-5.7,2.47-5.69.53,0-.88,2.08-1.59,2.69-1.91,1.21-.63,2.41-1.33,3.82-1.12.51.08.29.86-.22.78a5.17,5.17,0,0,0-3,.94c-.46.24-1.61.61-1.9,1C1390.82,1670.22,1390.85,1670.28,1391.16,1670.31Z"/><path class="cls-2" d="M1391.23,1704.2l-12.1.56c-.52,0-.52-.79,0-.81l12.1-.56C1391.75,1703.37,1391.75,1704.17,1391.23,1704.2Z"/><path class="cls-2" d="M1385.63,1562.82a18.31,18.31,0,0,1,4.59,6.85c.18.49-.6.7-.78.21a17.32,17.32,0,0,0-4.38-6.49C1384.68,1563,1385.25,1562.47,1385.63,1562.82Z"/><path class="cls-2" d="M1384.36,1632.1a15.2,15.2,0,0,1,4.82,5.26c.25.45-.45.86-.7.41a14.33,14.33,0,0,0-4.53-5C1383.52,1632.51,1383.93,1631.81,1384.36,1632.1Z"/><path class="cls-2" d="M1384.34,1737.83l5.79-1c.51-.09.73.69.22.78l-5.8,1C1384,1738.7,1383.83,1737.92,1384.34,1737.83Z"/><path class="cls-2" d="M1381.35,1648.43l2.52,2.3c.38.36-.19.93-.57.57l-2.53-2.3C1380.39,1648.65,1381,1648.07,1381.35,1648.43Z"/><path class="cls-2" d="M1379.81,1599.13c-.36-.37.2-.94.57-.57l2.91,2.9c.36.37-.21.94-.57.57Z"/><path class="cls-2" d="M1378.41,1677.36a2,2,0,0,1,2.86.73c.22.47-.47.88-.7.41a1.18,1.18,0,0,0-1.76-.45C1378.39,1678.36,1378,1677.66,1378.41,1677.36Z"/><path class="cls-2" d="M1371.54,1618.91a34.44,34.44,0,0,1,9.86,9.27c.3.42-.4.82-.7.4a33.32,33.32,0,0,0-9.57-9C1370.69,1619.33,1371.1,1618.63,1371.54,1618.91Z"/><path class="cls-2" d="M1374,1558.52l3,5.73c.25.46-.45.86-.69.41l-3.05-5.74C1373.1,1558.47,1373.8,1558.06,1374,1558.52Z"/><path class="cls-2" d="M1373.4,1687.22l-3.86,1a.4.4,0,0,1-.22-.77l3.86-1A.41.41,0,0,1,1373.4,1687.22Z"/><path class="cls-2" d="M1383.62,1719.14c-3.69,1-7.43,2.8-11.34,2.42-.51,0-.51-.85,0-.81,4.33.43,8.71-1.82,12.85-2.83a80.68,80.68,0,0,1,12.07-2,82.92,82.92,0,0,1,25.14,1.54c.51.11.3.89-.21.78a82.25,82.25,0,0,0-25.52-1.46A80.7,80.7,0,0,0,1383.62,1719.14Z"/><path class="cls-2" d="M1372.67,1675.14a2.29,2.29,0,0,0-2.13-.33c-.49.17-.7-.62-.21-.78a3.06,3.06,0,0,1,2.75.41C1373.5,1674.74,1373.1,1675.44,1372.67,1675.14Z"/><path class="cls-2" d="M1364.26,1544.47a65.61,65.61,0,0,1,7.06,9.11c.28.43-.42.84-.7.4a64.44,64.44,0,0,0-6.93-8.93C1363.34,1544.66,1363.9,1544.09,1364.26,1544.47Z"/><path class="cls-2" d="M1363.63,1687.37a9.17,9.17,0,0,0-4.25.43c-.49.18-.7-.61-.21-.77a9.8,9.8,0,0,1,4.46-.47C1364.14,1686.63,1364.15,1687.44,1363.63,1687.37Z"/><path class="cls-2" d="M1380.86,1555.9a59.62,59.62,0,0,0-25.18-27.38c-.45-.25,0-1,.41-.7a60.27,60.27,0,0,1,25.46,27.67C1381.77,1556,1381.07,1556.37,1380.86,1555.9Z"/><path class="cls-2" d="M1360.13,1569.27c-1.81-3.27-3.5-6.62-5-10a46.28,46.28,0,0,1-3.52-10.11c-.09-.51.69-.73.78-.22a47.47,47.47,0,0,0,3.92,11c1.46,3.23,3.08,6.38,4.81,9.48,3.56,6.38,7.55,12.51,11.54,18.63.28.44-.42.84-.7.41C1367.86,1582.13,1363.76,1575.84,1360.13,1569.27Z"/><path class="cls-2" d="M1353.47,1649a7.94,7.94,0,0,1,5.68,2.75c.34.39-.23,1-.57.57a7.12,7.12,0,0,0-5.11-2.51C1353,1649.78,1353,1649,1353.47,1649Z"/><path class="cls-2" d="M1364.54,1673.57a71.82,71.82,0,0,0-41.8,3.47c-.48.2-.69-.58-.22-.77a72.38,72.38,0,0,1,42.24-3.47C1365.27,1672.91,1365.05,1673.68,1364.54,1673.57Z"/><path class="cls-2" d="M1347.42,1603.26a4.74,4.74,0,0,1,4.29.12c.46.24.06.94-.4.7a3.88,3.88,0,0,0-3.48-.13C1347.36,1604.17,1347,1603.47,1347.42,1603.26Z"/><path class="cls-2" d="M1342.47,1618.22l3.38,1a.4.4,0,0,1-.21.77l-3.39-1A.41.41,0,0,1,1342.47,1618.22Z"/><path class="cls-2" d="M1340,1631.23c3.39,1.48,7.1,1.81,10.67,2.66A60.07,60.07,0,0,1,1360,1637a149.29,149.29,0,0,1,17.66,9.29.41.41,0,0,1-.41.7,141.21,141.21,0,0,0-18.54-9.66,57.36,57.36,0,0,0-9.71-3c-3.2-.66-6.42-1.1-9.44-2.43C1339.06,1631.72,1339.48,1631,1340,1631.23Z"/><path class="cls-2" d="M1339.43,1702.52a.41.41,0,0,1,0,.81h-5.32a.41.41,0,0,1,0-.81Z"/><path class="cls-2" d="M1337.82,1644.73a5.29,5.29,0,0,1,5.74,2.37.41.41,0,0,1-.7.41,4.47,4.47,0,0,0-4.83-2C1337.53,1645.62,1337.31,1644.84,1337.82,1644.73Z"/><path class="cls-2" d="M1338.47,1739a284.94,284.94,0,0,0,40.55-2.56c.51-.07.73.71.21.78a286.43,286.43,0,0,1-40.76,2.59A.41.41,0,0,1,1338.47,1739Z"/><path class="cls-2" d="M1335.67,1685.59a52.62,52.62,0,0,0,17.8,2.41c.52,0,.52.79,0,.81a53.41,53.41,0,0,1-18-2.44C1335,1686.21,1335.17,1685.43,1335.67,1685.59Z"/><path class="cls-2" d="M1330.24,1600.42a19.8,19.8,0,0,1,6.42.34c.51.11.3.88-.21.77a19.34,19.34,0,0,0-6.21-.31C1329.72,1601.28,1329.73,1600.47,1330.24,1600.42Z"/><path class="cls-2" d="M1372.36,1705.86a74,74,0,0,0-45.48,23.26c-.36.38-.93-.19-.58-.57a74.9,74.9,0,0,1,46.06-23.5C1372.88,1705,1372.87,1705.8,1372.36,1705.86Z"/><path class="cls-2" d="M1323.94,1652.65a15.71,15.71,0,0,1,8.91,2.5c.44.28,0,1-.41.7a14.88,14.88,0,0,0-8.5-2.4C1323.42,1653.47,1323.42,1652.66,1323.94,1652.65Z"/><path class="cls-2" d="M1321,1699.07a18,18,0,0,1,7,2.08c.46.25,0,.94-.4.7a17,17,0,0,0-6.56-2C1320.53,1699.83,1320.52,1699,1321,1699.07Z"/><path class="cls-2" d="M1318.6,1614.75a35.7,35.7,0,0,1,18.68,3c.47.21.06.91-.41.69a34.84,34.84,0,0,0-18.27-2.85C1318.08,1615.62,1318.09,1614.81,1318.6,1614.75Z"/><path class="cls-2" d="M1325.91,1601.07a.41.41,0,0,1,0,.81c-10-.09-20.91,0-29.28,6.26-.41.31-.81-.39-.4-.7C1304.7,1601.08,1315.78,1601,1325.91,1601.07Z"/><path class="cls-2" d="M1304.92,1639a47.61,47.61,0,0,1,28.85,2.48c.47.19.26,1-.22.78a46.89,46.89,0,0,0-28.41-2.49C1304.63,1639.87,1304.42,1639.09,1304.92,1639Z"/><path class="cls-2" d="M1307.16,1681.34a50.6,50.6,0,0,0,16.41,6.18c.51.09.29.87-.22.77a50.85,50.85,0,0,1-16.59-6.25A.4.4,0,0,1,1307.16,1681.34Z"/><path class="cls-2" d="M1294.49,1679.18a69.2,69.2,0,0,0,21.42,18.08c.46.25,0,1-.41.7a69.82,69.82,0,0,1-21.58-18.21C1293.6,1679.35,1294.17,1678.78,1294.49,1679.18Z"/><path class="cls-2" d="M1175.74,45.41c.53,2.23,3.13,3.46,5,4.32a24,24,0,0,0,10.11,2.06,23.16,23.16,0,0,0-6.35,10c-1,3.15-2.53,10.26,2.32,11.06s8-4.54,8.91-8.46c.84-3.43.89-7,2.1-10.38a19.85,19.85,0,0,1,3.32-5.84l0,0h0a0,0,0,0,0,0,0c.63-.28,1.25-.57,1.87-.89l.44-.11.93-.05a30.44,30.44,0,0,1,3-.88l.5-.11c8-1.76,16.54-.47,24.64.46a114.68,114.68,0,0,0,17.05.76,151.56,151.56,0,0,0-17.11,8.77l-2.44,1.46-1.4.85-.8.37a37.45,37.45,0,0,0-16.49,14.71c-2,3.42-5.25,12.14,1.7,12.09,5.43,0,9.82-5.51,11.29-10.25.88-2.84,1.33-5.79,2-8.67a23.56,23.56,0,0,1,2.33-6.66l.73-.47c1.73-1.12,3.51-2.16,5.29-3.18l.09-.06a150.53,150.53,0,0,1,18.57-9.1.41.41,0,0,0,.11-.07A86.78,86.78,0,0,0,1264,45.71c1-.19,2-.41,3.06-.64a93.67,93.67,0,0,0,10.81-3.17c2.52-.9,5-1.91,7.44-3a226.52,226.52,0,0,0-24.15,22.93l-.18.2c-.9,1-1.78,2-2.66,3-.38.44-.76.87-1.13,1.31a239.16,239.16,0,0,0-34.73,53.1c-.47,1-.93,2-1.39,2.93a1,1,0,0,0,0,.1q-2.52,5.44-4.75,11-2.85,7.08-5.23,14.31c-1.17,3.58-2.27,7.19-3.27,10.81q-1.26,1.86-2.65,3.58a.7.7,0,0,0-.69.2,30.59,30.59,0,0,1-15,8.68.76.76,0,0,0-.29-.1c-3.48-.45-5.63-3.38-7.75-5.88a15.16,15.16,0,0,0-6.68-4.91c-3.47-1.18-11.24-2.55-11.62,3-.37,5.41,6.82,7.85,10.94,9a31.86,31.86,0,0,0,15.25.34l1.4-.35.54-.16c.87-.26,1.73-.56,2.58-.89a31.51,31.51,0,0,0,4.66-2.3,43.12,43.12,0,0,1-6.61,4.44c-.63.34-1.27.67-1.93,1s-1.13.54-1.7.79a134.24,134.24,0,0,1-12.75,4.7l-1.49.5-2.84,1A25.4,25.4,0,0,0,1162,181a17,17,0,0,0-3.57,1.19c-3.74-.17-7.25-2.29-10.83-3.33-3.33-1-8.63-1.36-10.48,2.41a4,4,0,0,0,1,4.66c1.55,1.51,3.79,1.76,5.85,1.75a29,29,0,0,0,7.13-.82,34.45,34.45,0,0,0,6.47-2.84c.35-.18.7-.34,1.06-.49a17.88,17.88,0,0,1,3.31-1.05,22.06,22.06,0,0,1,6.49-.36c-1.07.39-2.14.8-3.19,1.23-5.88,2.41-11.66,5.58-16.12,10.07-.23.23-.45.46-.67.7s-.6.65-.9,1a4.81,4.81,0,0,1-1.07.12h-.31c-2.47-.07-5-1.48-7.35-2-3-.69-6.24.22-7.8,3.08-1.19,2.18-1,5.4,1.4,6.67,2.84,1.51,6.61-.55,9.22-1.94a23.69,23.69,0,0,0-1.4,2.69c-1.25,2.8-2.37,7.87.67,10a2.61,2.61,0,0,0,3.69-.74c1.24-1.68.86-4.28,1-6.24a39.79,39.79,0,0,1,1.33-8.71l.26-.36c.34-.48.71-.94,1.08-1.39s1-1.14,1.5-1.68a32.76,32.76,0,0,1,2.45-2.27,51.22,51.22,0,0,1,13.57-7.8c1.84-.75,3.7-1.43,5.58-2.09l1,.18c-.77.88-1.59,1.73-2.44,2.53-.39.37-.79.73-1.19,1.08-1.52,1.3-3.12,2.49-4.7,3.73a36.75,36.75,0,0,0-9.32,11.37c-1.4,2.53-4.85,7.69-.12,9,4.06,1.09,7.16-2.84,8.58-6.06,2.47-5.56,3.33-11.75,6.74-16.88a.63.63,0,0,0,.11-.48,42.62,42.62,0,0,0,3.08-3.08c.27-.3.55-.6.82-.92h0a.55.55,0,0,0,.36-.44,7.75,7.75,0,0,0,.83-1.25c3.71-1.23,7.42-2.43,11-3.88-.72.8-1.43,1.61-2.12,2.44h0a.56.56,0,0,0-.31.27l-.16.3q-1.65,2-3.12,4.13c-3.18,4.6-6,10.05-6.56,15.71-.32,3.56,1,10.85,6.1,9.68,4.86-1.12,6.66-6.1,5.72-10.56-.58-2.75-1.79-5.32-2.41-8.05a14.65,14.65,0,0,1,1.34-10.11c1.44-1.76,3-3.45,4.56-5.1.69-.31,1.37-.63,2-1a45.43,45.43,0,0,0,15.71-12.94c-1.61,6.15-3,12.37-4.06,18.62a47.5,47.5,0,0,0-1.8,11.92,237,237,0,0,0-1.84,28.19q0,4.17.09,8.34c0,1,.07,2,.11,3l-.3,1.51a51.52,51.52,0,0,1-4,13.44c-.13.25-.26.51-.4.76-3.72,7-9.81,12.42-14.63,18.69l-1.47.9a.53.53,0,0,0-.77-.2c-4,2.33-8.62,1.48-13,1.09-3.61-.32-8.26-.47-10.86,2.57-1.94,2.28-1.59,6.2,1.48,7.27a14.25,14.25,0,0,0,5.56.34,25.79,25.79,0,0,0,5.63-1.13,24.4,24.4,0,0,0,4.45-1.92c-4.54,4.18-8.93,8.57-9.11,15,0,1.52.09,3.44,1.56,4.3s4.13.68,5.73.25a6.57,6.57,0,0,0,4-3.53,60.49,60.49,0,0,0,3.14-6.79,69.56,69.56,0,0,0,4.31-16.79c.09-.11.17-.22.25-.34,1.95-2.55,4.12-5,6.22-7.38.52-.59,1-1.18,1.55-1.78a58,58,0,0,0,6.71-9.17c.23-.39.44-.8.65-1.2.11-.21.22-.42.32-.64a43.87,43.87,0,0,0,3.22-9.83q.54,8.66,1.71,17.27c.21,1.58.44,3.16.68,4.73q1.43,9.27,3.57,18.43a75.82,75.82,0,0,1,.55,17.36c-.09.86-.21,1.72-.37,2.57-.1.56-.21,1.12-.34,1.68a16.93,16.93,0,0,1-1.06,2.08,20.21,20.21,0,0,1-4.79,5.4c-4.08.07-8.45-4.31-12.07-5.15a12.19,12.19,0,0,0-7.32,1c-2.05.83-4.53,2.13-4.85,4.58a5.25,5.25,0,0,0,2.83,4.93c2.32,1.39,5.15,1.48,7.78,1.25a27.41,27.41,0,0,0,14-5.09c.15-.11.29-.21.43-.33s.35-.27.52-.41c.4-.34.78-.69,1.16-1.05s.59-.59.87-.9.5-.56.74-.85l.28-.35c-.12.32-.24.65-.37,1,0,.13-.1.27-.16.4-.19.47-.39.94-.6,1.4s-.48,1.05-.73,1.56c-.63,1.27-1.31,2.52-2,3.74l-.17.28-.68,1.08c-1.16.83-2.31,1.69-3.46,2.56a.57.57,0,0,0-.85.16c-1.73,2.78-5.63,2.48-8.48,2.49l-11.62,0c-5.68,0-13.35-.8-17.15,4.48-1.38,1.92-2,4.75-.18,6.61s5.41,2.05,8,2c6.11-.06,12-2.21,17.31-5.18a109.31,109.31,0,0,0,12-8.16h0c.72-.55,1.44-1.1,2.17-1.64-1.72,2.36-3.56,4.64-5.45,6.86a.51.51,0,0,0-.2.23l-.85,1a17.32,17.32,0,0,1-2.23,1.26c-1.93.95-3.85,1.89-5.71,3-3.07,1.79-6.68,4-7.51,7.76-.71,3.17,1.23,6.23,4.63,6.19s6.17-2.6,7.88-5.29c2.41-3.78,3.73-8.33,4.83-12.66.06-.2.11-.4.15-.59.51-.61,1-1.21,1.52-1.82,1.83-2.22,3.58-4.49,5.19-6.85-.78,3-1.64,6.11-2.37,9.19-1.9,8-2.86,16,1.18,23.45,2.3,4.29,7.46,9.56,12.9,8a5.36,5.36,0,0,0,3.73-5.64c-.14-3.08-2.07-5.44-4.31-7.37-2.93-2.52-5.82-4.73-8-8a24.26,24.26,0,0,1-4-10.33.59.59,0,0,0-.11-.28c.89-3.73,2-7.41,2.85-11.13.11-.45.21-.89.3-1.35.11-.17.22-.36.32-.54.32-.54.62-1.08.92-1.63s.43-.82.64-1.23l.15-.32c0,.14,0,.27,0,.41h0a26.23,26.23,0,0,0,.2,2.66,27.34,27.34,0,0,0,2.57,8.71c1.49,3,4.42,8.29,8.48,7.78a4.27,4.27,0,0,0,3.46-3.22,5.8,5.8,0,0,0-1.12-5.08c-1.53-2-3.9-3.14-6.12-4.23a16.65,16.65,0,0,1-6-4.5,23.88,23.88,0,0,1-.16-3.05,27.27,27.27,0,0,1,.18-2.86,40.49,40.49,0,0,0,1.9-6.11c.12-.53.22-1.06.32-1.61l.15-.9c.07-.44.13-.87.18-1.31.14-1.07.23-2.14.28-3.22a60,60,0,0,0,0-6.57q1.47,5.42,3.17,10.75a16.71,16.71,0,0,0,1.49,4.51A242,242,0,0,0,1225,331.92q1.88,3.74,3.89,7.38a.49.49,0,0,0,0,.12c-.19,6.43-.7,12.95-.46,19.39.18,4.94,1.71,10.5,6.4,13,1.71.92,4.28,1.48,5.71-.25s.85-5.14.58-7.3a51.06,51.06,0,0,0-4.54-15c-.52-1.14-1.08-2.26-1.65-3.37-.27-.53-.54-1.05-.83-1.57a28.41,28.41,0,0,0,2.93,1.8c1,.52,2,1,2.93,1.43,2.7,1.21,5.4,2.28,8.41,2a19.34,19.34,0,0,0,7.87-2.64c3.63-2.11,9.49-7.4,6.8-12.15s-9.1-3-12.48-.24c-2.78,2.24-4.72,5.34-7.44,7.63a10.58,10.58,0,0,1-5.83,2.6,21.1,21.1,0,0,1-5-3.72,13.58,13.58,0,0,1-2.74-4.06.59.59,0,0,0-.58-.39c-.68-1.26-1.34-2.53-2-3.8a241.63,241.63,0,0,1-11.51-26.36,41.83,41.83,0,0,0,5.71,5.6,40.61,40.61,0,0,0,4.07,3h0l.35.22h0c.6.38,1.22.74,1.84,1.09a11.75,11.75,0,0,0,2.26,1.23c1.58,2.34,2.32,5.29,3.39,7.9,1.5,3.68,3.85,6.89,8,7.57,1.5.25,4.16.61,5.49-.36s1.54-3.06,1.79-4.44a6.12,6.12,0,0,0-.75-4.62c-1.2-1.72-3.35-2.78-5.13-3.77-1.29-.72-2.62-1.37-4-2a10.52,10.52,0,0,0,4.51-2.92c2.36-2.62,1.49-6.05-.53-8.61-.85-1.08-2.13-2.11-3.59-1.9s-2.38,1.69-3.22,2.84a23.33,23.33,0,0,1-4.87,5.33,8,8,0,0,1-3.22,1.17.69.69,0,0,0-.25,0,10.07,10.07,0,0,1-1.31.09c-.74-.46-1.47-.95-2.18-1.47-3.83-2.79-8-6.61-10.21-11.11q-.78-2.28-1.51-4.57c-.25-.78-.5-1.57-.74-2.36q-2.55-8.22-4.51-16.62a101.6,101.6,0,0,0-2.71-15.52c-.24-.88-.51-1.76-.82-2.62q-1.32-8.48-2-17-.43-5.1-.64-10.21-.26-6.06-.2-12.11.08-8.31.72-16.58c0,.26,0,.54,0,.8.5,8.37,1,17,4,24.89.09.25.2.49.3.74.22.52.45,1,.69,1.54,0,.3,0,.6,0,.89s0,.83.09,1.25a26.09,26.09,0,0,0,1.85,7.1,38.21,38.21,0,0,0,2.13,4.42.73.73,0,0,0-.06,1.1c4.46,4.16,2.1,11.2,2.18,16.46,0,2.43.45,5.09,2.1,7,1.38,1.6,3.64,2.7,5.65,1.57s2.59-3.79,2.56-5.94a15.5,15.5,0,0,0-2.17-7.15c-2.24-4-5.25-7.56-7.74-11.44-.52-.81-1-1.63-1.49-2.48a31.07,31.07,0,0,1-3.39-8.88c-.07-.35-.13-.7-.18-1.06,3.46,5.64,8.47,10.11,13.88,14.06a121.07,121.07,0,0,0,16,10.37,68.28,68.28,0,0,1,5.21,4.54.74.74,0,0,0,.08.22c2.23,4.15.06,9,.1,13.38,0,4,2.22,8.91,6.48,9.92a4,4,0,0,0,4.61-1.88c1.08-1.94.67-4.36.07-6.38a36.3,36.3,0,0,0-7.77-13.46c-.73-.82-1.48-1.62-2.26-2.39s-1.29-1.25-2-1.85a46.7,46.7,0,0,0,5.31,1.8,36,36,0,0,0,8.77,1.26.58.58,0,0,0,.52.34c.5.05,1,.08,1.53.11.82.05,1.66.08,2.49.08,1.25,0,2.5,0,3.75-.17.4.13.8.27,1.19.42h0c2.07,1.72,2.9,4.62,3.37,7.27a43.66,43.66,0,0,0,2,8.38c1.92,4.88,6.63,9.69,12.35,8.63,2.29-.42,4.51-2,4.6-4.54s-2-5.12-3.41-7.07A41.71,41.71,0,0,0,1271.45,266a41,41,0,0,0-4.06-2,23.31,23.31,0,0,0,3.35-.92,9.85,9.85,0,0,0,4.8-4,14.47,14.47,0,0,0,2.67-6.13c.42-3.42-1.57-8-5.18-8.93-4.34-1.13-6.52,4.79-7.4,7.89s-1.76,7.43-4,10.23a2.43,2.43,0,0,1-.2.25,30.89,30.89,0,0,1-3.35.33,33.77,33.77,0,0,1-8.45-.77,46,46,0,0,1-11.24-4.18c-1.52-1.19-3.09-2.34-4.67-3.46a24.05,24.05,0,0,0,21.11-5.18,19.12,19.12,0,0,0,4.71-5.73c.91-1.87,1.43-4.73-.31-6.32s-4.38,0-6.16.76a42.35,42.35,0,0,0-7.46,3.75c-4.87,3.21-8.7,9.82-14.93,10.42a7.55,7.55,0,0,1-1,0,.67.67,0,0,0-.49.2c-1.12-.76-2.23-1.53-3.32-2.29l-1.44-1c-5.61-4-11.14-8.35-14.94-14.08a27.32,27.32,0,0,0,4.81,2.24,26.29,26.29,0,0,0,2.58.77,27.36,27.36,0,0,0,9.2.69c3.44-.32,9.88-1.36,10.25-5.76a4.45,4.45,0,0,0-2.2-4,6,6,0,0,0-5.26-.38c-2.62.92-4.49,3-6.5,4.83a15,15,0,0,1-5.52,3.23c-.84-.22-1.66-.47-2.47-.77a25.52,25.52,0,0,1-6.46-3.49c-.15-.29-.29-.57-.43-.86l-.28-.58c-.31-.67-.59-1.35-.86-2-2.62-6.75-3.23-14.13-3.7-21.3-.31-4.77-.65-9.65-.48-14.49q.73-5.9,1.75-11.74c.29-1.62.59-3.24.91-4.85q1.69-8.67,4-17.2c.21-.32.42-.63.62-.95v.07c0,5.36,1.36,10.48,2.78,15.59.86,3.1,1.74,6.19,2.38,9.32,0,.14.06.28.08.42a69.87,69.87,0,0,0-3.19,14.56,64.38,64.38,0,0,0-.39,7.6c0,2-.09,4.22,1,6A8.9,8.9,0,0,0,1217,215a3.22,3.22,0,0,0,4.15-1.39c2.46-3.75,2.23-8.69,1.15-12.84a48.66,48.66,0,0,0-2.1-6.09,22.78,22.78,0,0,0,11.91,9,4.36,4.36,0,0,0,5.69-4.32c.06-3.67-3.51-6.07-6.46-7.43-4.7-2.16-10.48-3-13.58-7.57a.55.55,0,0,0-.79-.18c-.33-.5-.66-1-1-1.53-.54-2.6-1.24-5.18-1.94-7.7a81.05,81.05,0,0,1-2.91-13,33.85,33.85,0,0,1-.07-6.12c.09-1.18.24-2.35.42-3.52q.36-2.15.87-4.26,2.06-6.24,4.47-12.37c.21-.51.41-1,.61-1.53l.75-1.83q1.08-2.64,2.24-5.26.93-2.11,1.9-4.23a239.14,239.14,0,0,1,33.19-52.49,46.2,46.2,0,0,0-2.77,15.3h-.06c0,.56-.07,1.12-.13,1.68a36.25,36.25,0,0,1-5.12,15.25c-.47.76-1,1.5-1.48,2.22s-1,1.28-1.49,1.9c-.7.83-1.43,1.63-2.2,2.39-.67.34-1.34.65-2,1-2.65,1.25-5.35,2.39-7.9,3.83-4.53,2.57-8.9,6.68-9.56,12.13-.24,2-.12,5,1.94,6s4.58-1,6.17-2a32.08,32.08,0,0,0,14.54-21.24c.1-.52.18-1,.25-1.55.34-.41.67-.83,1-1.27a35.58,35.58,0,0,0,2.47-3.78,37.66,37.66,0,0,0,3.94-10.11q.24,2,.66,4a84.66,84.66,0,0,0,3.22,11,27.31,27.31,0,0,1-.46,12.32,70.54,70.54,0,0,1-2.89,7.3.67.67,0,0,0-.7.52c-2.39,10-17.81,14.27-15.45,26a7.68,7.68,0,0,0,3.07,4.87,6.31,6.31,0,0,0,6.16.1c4.14-1.89,6.5-6.2,7.42-10.48a47,47,0,0,0,.75-9.17c0-3.07.09-6.14.14-9.2,0-.49,0-1,0-1.46a.55.55,0,0,0-.25-.51,54.19,54.19,0,0,0,3.38-8.94,23.74,23.74,0,0,0,.64-6.42c2.32,6,4.76,12,6.31,18.31a47.34,47.34,0,0,1,1.5,13.95q0,.6-.09,1.2l-.06.59c0,.34-.08.68-.13,1l0,.24c0,.34-.11.68-.17,1,0,.14-.05.27-.08.41h0c-1.73,3.62-5.41,6.56-7.87,9.49-3.89,4.63-5.1,11-4.47,16.89.24,2.19,1.15,4.34,3.3,5.24a7.39,7.39,0,0,0,6.57-.87c5.21-3.16,6.41-9.61,6.52-15.23a55.4,55.4,0,0,0-1-11.43,29.34,29.34,0,0,0,5.87,5.53c3.88,2.73,9,5.09,13.84,3.88,3.85-1,7.73-4.87,6.58-9.14-.64-2.35-2.91-3.23-5.1-3.66a30.12,30.12,0,0,0-7.88-.19c-4.66.34-10.56.84-14.38-2.21l-.35-.28a37.57,37.57,0,0,0,.29-4.23h0c.09-8.51-2.59-17-5.61-24.92-1.38-3.63-2.83-7.27-4.12-11-.34-2.11-.78-4.22-1.22-6.32a12,12,0,0,0,2.42,2.77c2.59,2.16,5.89,2.8,9.09,3.64.4.1.81.21,1.21.33l.12,0c1.59,1.4,2.5,3.51,3.38,5.42a44.78,44.78,0,0,0,4.18,7.27c3.1,4.34,7.69,9.61,13.48,9.72,4.61.08,9.17-3.53,7.89-8.51-.64-2.48-2.64-4.48-4.44-6.2a33.08,33.08,0,0,0-7-5.06,33.69,33.69,0,0,0-17.11-4l-.61,0-2-.52a21.54,21.54,0,0,1-6.26-2.37c-2.83-1.78-4.25-4.63-5.31-7.71,0-.21-.07-.41-.09-.61a.62.62,0,0,0-.26-.43c-.54-1.69-1-3.43-1.6-5.07a41.4,41.4,0,0,1,0-6.95,44.81,44.81,0,0,1,4.09-15,227.94,227.94,0,0,1,22.12-22.27q5.25-4.59,10.76-8.83a94,94,0,0,0,17.08-11.87,224.62,224.62,0,0,1,114.52-34.25c16.46-.32,33.3,1,49.33,4.89,4.51,1.09,9,2.28,13.51,3.32.84.19,1-1.14.15-1.33-8.67-2-17.18-4.37-26-5.74a210.75,210.75,0,0,0-25.7-2.4,222,222,0,0,0-51.24,4.34,227,227,0,0,0-69.77,26.66c-1.81,1.05-3.59,2.13-5.36,3.24-6.07,3.81-12,7.91-17.64,12.3a93.18,93.18,0,0,1-11.43,5.11l-1.6.57a95.06,95.06,0,0,1-10.62,3,25.31,25.31,0,0,1-6.78-.55,19.87,19.87,0,0,1-7.85-3.7c-.75-3.51.72-7.57-.08-11.1-.72-3.14-3.73-6.38-7.26-5-3.77,1.52-3.12,7-1.83,9.93a15.75,15.75,0,0,0,8.34,7.9c.53.24,1.07.46,1.62.65a.66.66,0,0,0,.23,0,.31.31,0,0,0,.19,0,21.94,21.94,0,0,0,6.14,2.51,45.49,45.49,0,0,1-27.05-3.33,43.24,43.24,0,0,1-4.65-2.49c-.58-.35-1.15-.72-1.72-1.1l0,0c-2.67-3.42-4.2-7.64-5.64-11.72-1.66-4.7-3.24-10.64-7.94-13.23-3.45-1.9-8.9-1-10,3.25-.61,2.34.34,4.76,1.52,6.75a31.66,31.66,0,0,0,5.4,6.64c4.33,4.16,9.93,8.35,16,9.56l.39.08c.95.63,1.92,1.22,2.92,1.79A46.37,46.37,0,0,0,1243.78,46q-4.69-.09-9.39-.6c-8-.88-16.45-2.26-24.47-1-.65.1-1.29.21-1.93.35-.38.07-.75.16-1.13.25-.9.22-1.8.48-2.69.79l-.75,0v0l0,0a15.74,15.74,0,0,1-1.82-.07,14.88,14.88,0,0,1-2.79-.51c-2.91-.82-5.1-2.49-7.42-4.35a11,11,0,0,0-6.76-2.81,10.18,10.18,0,0,0-6.21,2C1176.78,41.27,1175.23,43.28,1175.74,45.41Zm48.65,24.32a38,38,0,0,1-1.77,6.64,14.33,14.33,0,0,1-5.25,6.35c-1.75,1.16-6.06,2.86-7.1-.12-.5-1.43.08-3.36.54-4.73a20.69,20.69,0,0,1,2.06-4.23,35.79,35.79,0,0,1,8.59-9.4c.53-.41,1.07-.8,1.62-1.19a40.26,40.26,0,0,1,3.71-2.25c-.11.25-.22.51-.32.77A49.1,49.1,0,0,0,1224.39,69.73Zm-46.18,101.86a29.74,29.74,0,0,1-7.34-2c-2.25-.92-5.14-2.16-6.1-4.59-1.12-2.87,1.07-4.63,3.75-4.64a16.59,16.59,0,0,1,7.67,1.78c4.21,2.25,6.2,7.43,10.47,9.38A29.89,29.89,0,0,1,1178.21,171.59Zm-28.07,14.14a28.44,28.44,0,0,1-6.57.64c-2.08,0-5.18-.55-5.54-3.11s2.94-3.64,4.92-3.73a15.63,15.63,0,0,1,5.91,1.19,55.21,55.21,0,0,0,7.33,2.53A27.22,27.22,0,0,1,1150.14,185.73Zm-8.9,14c-2.53,1.31-9.91,4.9-9.68-.77a4.94,4.94,0,0,1,2.89-4.15c1.89-.91,4-.36,5.86.28a30.05,30.05,0,0,0,4.66,1.38c-.45.51-.9,1-1.32,1.58q-.24.3-.48.63C1142.54,199,1141.89,199.38,1141.24,199.72Zm2.85,8.7a11.17,11.17,0,0,1-.28,3.11c-.51,1.52-2,1.86-2.87.35-1.86-3.29.18-7.55,2-10.4.38-.62.79-1.23,1.22-1.81.28-.4.58-.8.89-1.18l.51-.62c-.11.37-.21.75-.3,1.13-.18.74-.33,1.49-.46,2.25,0,.23-.08.46-.11.69A61.33,61.33,0,0,0,1144.09,208.42Zm11.4.75c-1.17-.07-2.22-.71-2.17-2a7.28,7.28,0,0,1,1.14-2.75c1.13-2.11,2.28-4.21,3.61-6.2a28.55,28.55,0,0,1,4.42-5.26c1.51-1.37,3.16-2.56,4.76-3.81a69.83,69.83,0,0,0-3.76,10.13C1162.31,202.87,1160.4,209.48,1155.49,209.17Zm26.88-15.67c1.23,4,3.74,8.95.74,12.78a6.61,6.61,0,0,1-2.89,2.11,3,3,0,0,1-3.81-1.38,10.28,10.28,0,0,1-1.34-6.65c.48-5.26,3.11-10.34,6-14.64.25-.38.51-.74.77-1.11A17.54,17.54,0,0,0,1182.37,193.5ZM1175,271.1a24,24,0,0,1-10,5.46c-2.84.76-11.38,2.49-11-2.48.37-5.21,8.06-4.56,11.57-4.21a32.17,32.17,0,0,0,8.65.14,11.54,11.54,0,0,0,3.52-1.15c-.26.33-.54.66-.82,1l-.34.38C1176.08,270.52,1175.55,270.82,1175,271.1Zm1.4,9.57q-1,3-2.3,6a26.12,26.12,0,0,1-2.86,5.5c-1.36,1.76-3.34,2-5.42,1.85-1.35-.08-2.27-.39-2.52-1.83a9.28,9.28,0,0,1,.06-3c.66-4,3.31-7.49,6.14-10.29,2.09-2.07,4.34-4,6.43-6a36,36,0,0,0,3.19-3.56l-.18,1.11A67.52,67.52,0,0,1,1176.43,280.67Zm11.78,31.46a17.78,17.78,0,0,1-7.37.07c-2.18-.56-5.48-2.83-3.83-5.48,1.26-2,4.64-3.05,6.85-3.45,2.9-.52,5.36.63,7.8,2.09a20.74,20.74,0,0,0,6.39,2.88A25.59,25.59,0,0,1,1188.21,312.13Zm-19.1,18.8a21.61,21.61,0,0,1-8.48-.15c-1.6-.41-3.09-1.36-3.05-3.2a5.87,5.87,0,0,1,2.15-4.05c2.35-2.07,5.55-2.57,8.58-2.69,3.4-.13,6.82,0,10.22-.06,3.56,0,7.16.12,10.72,0,.43,0,.87-.06,1.3-.11C1184,325.39,1177.21,329.7,1169.11,330.93Zm17.41,6.49a11.37,11.37,0,0,1-4.08,4.24c-2,1.1-5.1,1.47-6.11-1.11-1.84-4.72,4.39-8.2,7.66-10,1.12-.62,2.37-1.18,3.62-1.77a29.84,29.84,0,0,0,2.9-1.56c0,.14-.07.27-.11.4A38.67,38.67,0,0,1,1186.52,337.42Zm17.6,3.36c2.11,2.16,4.73,3.75,6.77,6,1.92,2.07,3.55,6,1.12,8.32-2,2-5.41,1-7.5-.33a16.29,16.29,0,0,1-5.59-6.34c-2.89-5.63-2.84-12.08-1.77-18.17.08-.47.18-.94.27-1.4A26.49,26.49,0,0,0,1204.12,340.78Zm1.77-25.69a26.84,26.84,0,0,0,5.49,3.19c1.92,1,4,2.14,5,4.12.82,1.6.67,3.92-1,5-3.62,2.25-7.3-4.87-8.42-7.34a26.45,26.45,0,0,1-1.8-5.57C1205.4,314.67,1205.64,314.88,1205.89,315.09Zm39.41,26.84c3.47-3.49,6.76-8.95,12.36-8.8,2.92.09,5.35,2.38,4.47,5.4a12.5,12.5,0,0,1-4.5,5.83,19.13,19.13,0,0,1-7,3.41,13.06,13.06,0,0,1-8.72-.83c-.89-.37-1.79-.76-2.69-1.19A15,15,0,0,0,1245.3,341.93Zm-6.47,17.4a41.5,41.5,0,0,1,1.14,6.82,10.32,10.32,0,0,1-.09,3.88c-.52,1.52-2.19,1.5-3.46,1.05-5-1.78-6.51-7.74-6.67-12.47-.2-5.66.18-11.39.4-17.06l0-.9c.32.41.67.81,1,1.19.38.65.75,1.31,1.12,2A65.26,65.26,0,0,1,1238.83,359.33Zm3.72-38c1.91,1.11,4.36,2.34,4.59,4.8a8.54,8.54,0,0,1-.38,3c-.36,1.3-.65,2.53-2.23,2.63-2.52.16-5.17-.17-7.1-1.92a14.63,14.63,0,0,1-3.46-5.81,59.21,59.21,0,0,0-2.3-5.74c0-.07-.07-.14-.1-.2a12.85,12.85,0,0,0,3.86.31l.82-.08A43.76,43.76,0,0,1,1242.55,321.36Zm-13-6.78a8.56,8.56,0,0,0,3.72-2.47,36.52,36.52,0,0,0,3.93-4.67c.72-1,1.52-2.16,2.93-1.48a5.43,5.43,0,0,1,2.13,2.41c1.17,2.19,1.28,4.28-.63,6.09a10,10,0,0,1-4.53,2.38c-.23.06-.46.1-.69.14a11,11,0,0,1-5-.28l-.89-.42c-.85-.4-1.69-.83-2.51-1.28h0l.7-.16.41-.11ZM1216.14,254c2.82,3.84,6.56,9,5,14.06-.41,1.3-1.36,2.58-2.87,2.47a4.43,4.43,0,0,1-3.07-2.1c-1.58-2.31-1.47-5.51-1.27-8.18.22-3,.65-6.21.15-9.17C1214.73,252.07,1215.43,253,1216.14,254Zm35,20.3a23.09,23.09,0,0,1,2.32,6.57c.34,2.28-.39,5.41-3.35,4.83-4.51-.88-5.89-6.53-5.55-10.39.28-3.16,1.2-6.48.61-9.6A38.14,38.14,0,0,1,1251.1,274.31Zm29.27.13a38.5,38.5,0,0,1,5,6.28c.76,1.19,1.66,2.64,1.46,4.12-.23,1.68-1.91,2.67-3.45,3-6.16,1.17-10.29-5.08-11.68-10.17-1-3.6-1.1-8.29-3.06-11.62A40.42,40.42,0,0,1,1280.37,274.44Zm-12-25.95c.86-1.69,2.55-3.93,4.73-3.07a6.89,6.89,0,0,1,3.63,4.62,8.48,8.48,0,0,1-1,6.18c-1,1.91-2.33,4-4.24,5.08a16.27,16.27,0,0,1-6.11,1.61l-.08,0a6,6,0,0,0-.77-.34.61.61,0,0,0-.72.18l-.76-.23.35-.48a9.6,9.6,0,0,0,.6-1C1266.17,257.13,1266.31,252.47,1268.32,248.49Zm-27.55-.94a41.76,41.76,0,0,1,5.71-4.92,37.87,37.87,0,0,1,6.54-3.31c1-.44,2.11-.89,3.18-1.27.81-.29,1.77-.58,2.39.25a3.36,3.36,0,0,1,.45,2.4c-.29,2.49-2.2,4.7-3.92,6.39a23.08,23.08,0,0,1-11.95,6.22,22.64,22.64,0,0,1-10.06-.51C1236,251.83,1238.52,249.73,1240.77,247.55Zm-15.88-14.75a12,12,0,0,1,5.19-3.33,4.09,4.09,0,0,1,4.77,1.95c2,4.38-6.62,5.64-9.28,5.85a26,26,0,0,1-6.35-.3A23.85,23.85,0,0,0,1224.89,232.8Zm-3.34-24.17c-.25,1.6-1,4.69-2.76,5.21-.94.27-2.16-.41-3-.84a5.54,5.54,0,0,1-2.4-2c-1.07-1.78-.82-4.31-.79-6.3s.16-4.25.39-6.36a67.73,67.73,0,0,1,2.35-11.8c.1-.36.21-.72.32-1.08a33.41,33.41,0,0,0,1.31,4.47C1219.16,196,1222.58,202,1221.55,208.63Zm6.19-16.69c3.28,1.2,10.72,4.19,8.32,9.05-1.23,2.47-3.81,1.46-5.74.54A23.45,23.45,0,0,1,1225,198a24,24,0,0,1-6.39-9c-.37-.51-.73-1-1.08-1.54,0-.16-.09-.33-.14-.5q-.16-.6-.3-1.2a12.43,12.43,0,0,0,2.67,2.56A33.71,33.71,0,0,0,1227.74,191.94Zm26-60c0,3.94,0,7.91-.34,11.82-.38,4.43-1.66,9.19-5.36,12-1.79,1.37-4.52,2.49-6.61,1.15a6.64,6.64,0,0,1-2.74-5.34c-.25-4.71,2.9-8.44,6.1-11.51,2.56-2.47,5.36-4.85,7.32-7.79a15.24,15.24,0,0,0,1.65-3.12V129l.25-.48c-.07.24-.16.49-.25.72C1253.7,130.11,1253.69,131,1253.69,132Zm15.07,29c.22,5.44,0,12-4.21,16-1.81,1.73-4.75,3.13-7.22,2s-2.39-4.53-2.34-6.85a24.23,24.23,0,0,1,1.5-8.73,22.27,22.27,0,0,1,5-6.84,41.32,41.32,0,0,0,4.61-5.38,15.86,15.86,0,0,0,.88-1.47l.17.27,0,.06h0A55.16,55.16,0,0,1,1268.76,161Zm20.09-10.53c2.7.32,5.8,1.24,5.38,4.59a7,7,0,0,1-3.94,5.13c-4.34,2.23-9.59.15-13.38-2.26a28,28,0,0,1-8.49-8.47l-.17-.65C1274,152.37,1282.57,149.75,1288.85,150.48Zm-4.33-40.74c4.53,2,9.13,5.23,12,9.37,1.56,2.28,1.69,5.31-.47,7.28a7.6,7.6,0,0,1-6.64,1.53c-5.33-1.18-9.4-6.57-12.17-10.93-1.51-2.39-2.54-5-3.86-7.47a18.48,18.48,0,0,0-1-1.61q-.35-.5-.72-1c.68,0,1.36,0,2,.08A32.51,32.51,0,0,1,1284.52,109.74Zm-51.76,17.42a23.14,23.14,0,0,1-6,3.54c-3.52,1.26-2.72-5-2.11-6.72,1.74-5,6.31-8,10.83-10.27,1-.49,2.09-.95,3.2-1.43,1.4-.6,2.84-1.22,4.2-1.94l1-.55A31,31,0,0,1,1232.76,127.16Zm11.33-93.75c-1.26-2.56-2.35-9.63,2.53-8.86,4.23.67,4.15,6,3.86,9.22a29.19,29.19,0,0,0-.16,4.48,11.78,11.78,0,0,0,.16,1.33,17.22,17.22,0,0,1-1.72-1A13.28,13.28,0,0,1,1244.09,33.41Zm-32-3.25a36.56,36.56,0,0,1-5.71-5.89c-1.48-2-3.16-4.4-3.13-7a4.43,4.43,0,0,1,4.24-4.32,7.16,7.16,0,0,1,6.08,2.4c3.25,3.43,4.38,8.6,6,12.92a45.81,45.81,0,0,0,3.06,6.9c.36.64.74,1.27,1.15,1.87-.5-.14-1-.31-1.48-.49A37.06,37.06,0,0,1,1212.07,30.16Zm-14.22,20.63a21.06,21.06,0,0,0-2,5.59c-1,4.67-.75,10.57-4.85,13.86-2.19,1.76-5.58,1.92-6-1.44a15.88,15.88,0,0,1,.86-6.55A21.93,21.93,0,0,1,1193,51.71l0,0a19.58,19.58,0,0,1,2.66-1.78,21.39,21.39,0,0,1,3.67-1.61h0l-.51.74C1198.52,49.6,1198.17,50.19,1197.85,50.79Zm-17.5-10.41a8.77,8.77,0,0,1,6.55-.61c2.52.81,4.3,2.89,6.42,4.36a17.2,17.2,0,0,0,6.37,2.67l-1,.34a21.1,21.1,0,0,0-6.07,3.23,23,23,0,0,1-8.17-.75,16.11,16.11,0,0,1-6.41-3.08C1175.56,44.34,1178.21,41.49,1180.35,40.38Z"/><path class="cls-2" d="M1646.42,203.72l.18.2A32,32,0,0,0,1672,214.77c11.25-.48,20-7.78,28.93-13.71,4.8-3.17,9.85-5.91,15.53-7.05,3.12-.63,6.3-.91,9.4-1.65a30.78,30.78,0,0,0,7.7-3c10.1-5.5,16.57-15.56,20.6-26a141.46,141.46,0,0,0,5.59-19c.7-3.07,1.34-6.16,1.89-9.26.22,1.22.46,2.43.74,3.63a96.67,96.67,0,0,0,3.19,11q1.35,9.24,3,18.44a67.49,67.49,0,0,1-11.91,41.44c-5.4,7.78-12.52,13.72-20.06,19.35-4,3-8.06,6-11.84,9.26a87.18,87.18,0,0,0-10.19,10.59c-6.88,8.37-12.45,17.72-18,27l-.07.12c-.32.54.48,1.07.88.61l.1-.1c12.41-13.93,31.85-17.59,47.44-26.68a50.05,50.05,0,0,0,18.8-18.5,65.52,65.52,0,0,0,7.69-26.07,133.66,133.66,0,0,0-.18-23.33q2,9.44,4.28,18.81l.9,3.61c.3,1.15.59,2.3.9,3.45q2.45,9.36,5.24,18.62a25.59,25.59,0,0,1-2.4,6.88,100.93,100.93,0,0,0-4.4,9.79,58.68,58.68,0,0,0-3.36,21.7c.29,7.83,2.58,15.43,1.55,23.31-.85,6.52-3.07,12.76-4.88,19.06-1.93,6.76-3.37,13.78-2,20.78l.06.27c.12.59.9.41,1,0a95.39,95.39,0,0,1,9.42-20.22c3.63-5.85,8.29-11,11.61-17.08a27.93,27.93,0,0,0,3.29-9.45,41.13,41.13,0,0,0-.09-10.34c-.4-3.55-1-7.09-1.28-10.66-.3-3.83-.09-7.65,0-11.48.13-7.53-.71-16.14-7-21.21l-.42-1.39-1-3.3c-.71-2.44-1.41-4.87-2.09-7.32,1,2.35,2.07,4.68,3.24,7a52.81,52.81,0,0,0,10.78,14.83c4.45,4.12,9.85,6.75,15.34,9.21a113.51,113.51,0,0,1,16.17,8.55,92.07,92.07,0,0,1,15.76,13.11.47.47,0,0,1,.1.1c.47.48,1.06-.2.82-.7l-.06-.12c-5.4-11.32-11-22.86-19.63-32.15a50.5,50.5,0,0,0-14.76-11.19c-6.06-3-12.56-5-18.22-8.77a60,60,0,0,1-8.34-6.73,37.31,37.31,0,0,1-4.36-4.94q-3.2-12.53-5.76-25.2c-.52-2.57-1-5.16-1.51-7.74-.12-.66-.25-1.32-.37-2,0-.25-.09-.51-.14-.76q-.63-3.47-1.21-6.93t-1.1-6.83c.27.68.56,1.34.85,2a51.7,51.7,0,0,0,8.21,13.46,25.78,25.78,0,0,0,12.52,8.2c3.15.85,6.52.93,9.5,2.35a23.71,23.71,0,0,1,6.55,5.11,58.12,58.12,0,0,0,6.14,5.81,20.66,20.66,0,0,0,7.06,3.42,29.25,29.25,0,0,0,16.47-.82c6.67-2.19,12.59-6.09,18.37-10l18.25-12.27,4.38-2.95.23-.15a.55.55,0,0,0-.32-1l-16.21-.2c-5.37-.07-10.77-.28-16.14,0s-10.33,1.37-15.52,2A38.17,38.17,0,0,1,1794,156.56a50.78,50.78,0,0,1-6.88-11c-2-3.9-4-7.9-7.14-11-3.74-3.71-9.19-5-12.6-9.15a21.4,21.4,0,0,1-2.93-4.76c-.18-.4-.36-.81-.53-1.21-.4-1-.75-2-1.07-3-.06-.67-.11-1.34-.17-2,0-.2,0-.4,0-.6l-.12-1.48q-1.08-14.34-1.4-28.73-.25-11.83,0-23.69c4.42,11.74,10.51,23.43,20.61,31.19,5.82,4.47,12.71,7,19.25,10.13a67.67,67.67,0,0,1,31,30.54l.07.13c.28.56,1.14.11,1-.46a.74.74,0,0,0,0-.14c-4-13.53-10.14-26.71-19.54-37.34a60.55,60.55,0,0,0-16-13c-6.43-3.54-13.61-5.23-20.23-8.34A28.28,28.28,0,0,1,1767,65a30,30,0,0,1-5.73-12.38c0-1.25.09-2.5.15-3.74a537.15,537.15,0,0,1,6.7-65,528,528,0,0,1,14.51-63.31q1.15-3.91,2.38-7.81c.2-.67-.86-.9-1.06-.23a526.38,526.38,0,0,0-15.59,63.61,540,540,0,0,0-7.63,64.65q-.33,6-.54,11.95c-.06,1.51-.1,3-.14,4.53q-.37,13.77,0,27.53l-.74,1.39c-2.53,4.67-5.29,9.29-9.07,13a23,23,0,0,1-7.73,5.2,30,30,0,0,1-10.59,1.73c-6.62.09-13.39-.78-19.82,1.28a17.23,17.23,0,0,0-7.51,4.63,27.4,27.4,0,0,0-4.52,7.45c-2.61,5.76-6.07,14.28-13.72,13.94h-.14c-.61,0-.7,1-.09,1.08l.13,0a28.76,28.76,0,0,0,20.12-4.21c3.18-2,6.12-4.36,9.38-6.24a31.21,31.21,0,0,1,9.88-3.52c6.61-1.28,13.57-1.21,19.94-3.6a19.48,19.48,0,0,0,7.76-5.12,22.12,22.12,0,0,0,4.4-8c1.65-5,1.91-10.24,2.42-15.44q.29,8.79.83,17.57.16,2.57.36,5.13c.07,1.07.16,2.14.24,3.21-.06.28-.11.56-.15.82a1.43,1.43,0,0,0,0,.22,42.47,42.47,0,0,0-.58,4.37,47.69,47.69,0,0,0-.19,4.93q-7.14,11.19-15,21.91c-3.18,4.33-6.36,8.72-9.87,12.79a29.51,29.51,0,0,1-12.91,9.29c-4.83,1.95-9.92,3.24-14.64,5.49a57.3,57.3,0,0,0-12.21,8.21c-7.24,6.12-13.7,13.37-22,18.11-8,4.57-18.28,7.2-26.83,2.44C1646.68,202.69,1646.06,203.29,1646.42,203.72ZM1790,247.67c0,3.74-.28,7.47-.09,11.21.17,3.52.73,7,1.17,10.48a47.31,47.31,0,0,1,.45,10.63,26.12,26.12,0,0,1-2.92,9.51c-3.1,6-7.69,11.06-11.31,16.72a95.11,95.11,0,0,0-9.51,19.53c-1.62-12.34,5.06-24.14,7-36.12a40.82,40.82,0,0,0,.38-10.24c-.38-4.15-1.23-8.24-1.56-12.4a57.77,57.77,0,0,1,2.61-22.05,90.41,90.41,0,0,1,4.89-11.25,31.72,31.72,0,0,0,2.08-5.27l0-.11.08.08a13.33,13.33,0,0,1,1.41,1.28C1789.21,234.34,1790,241.37,1790,247.67Zm-3.67-33.61a51.17,51.17,0,0,0,7.82,5c3.06,1.56,6.26,2.81,9.41,4.16a53.31,53.31,0,0,1,16.56,10.68A75.57,75.57,0,0,1,1831.81,249c3.2,5.26,6,10.77,8.64,16.31A94.83,94.83,0,0,0,1813.52,247c-5.52-2.52-11.26-4.8-16.07-8.6a45.64,45.64,0,0,1-10.9-13.15,134.3,134.3,0,0,1-8.18-17.89.4.4,0,0,0-.07-.13c-.08-.28-.15-.55-.22-.83A51.63,51.63,0,0,0,1786.33,214.06ZM1764,228.32a48,48,0,0,1-18.1,19.52c-7.75,4.8-16.32,8-24.62,11.71-7.7,3.41-15.35,7.3-21.56,13a201.89,201.89,0,0,1,14.17-21.3,93.56,93.56,0,0,1,9.73-10.66,144.76,144.76,0,0,1,12.25-9.83c7.56-5.64,14.92-11.42,20.55-19.08a68.84,68.84,0,0,0,10.77-22.21,67.53,67.53,0,0,0,2.35-13.74C1771.33,193.48,1772.14,212,1764,228.32Zm-2.84-172a28,28,0,0,0,11.44,15.11c6.22,4,13.54,5.58,20.22,8.54,13.15,5.82,23.06,16.87,29.92,29.27a106.26,106.26,0,0,1,7.63,17.46,69,69,0,0,0-25-24.33c-6.32-3.56-13.31-5.82-19.5-9.64a48.45,48.45,0,0,1-14.59-14.59,96.27,96.27,0,0,1-10.06-21l0-.09C1761.15,56.78,1761.16,56.54,1761.17,56.29Zm-14.72,59.15c-6,2.65-12.74,2.72-19.1,3.74a38,38,0,0,0-9.16,2.45,52.41,52.41,0,0,0-8.89,5.42,37.76,37.76,0,0,1-10.7,5.7,26.73,26.73,0,0,1-8.24,1.1c4-1.62,6.93-5.79,8.74-9.6,1.34-2.83,2.45-5.78,4.06-8.47a16.06,16.06,0,0,1,7.37-6.6c6.47-2.83,13.74-1.91,20.6-1.93a34.52,34.52,0,0,0,10.36-1.32,22.93,22.93,0,0,0,7.91-4.48c4-3.43,7-7.87,9.57-12.46C1757.88,99.48,1757.22,110.68,1746.45,115.44Zm15.3,11.78c0-.74-.07-1.47-.08-2.21s0-1.36,0-2c0-.15,0-.3,0-.46,0-1.17.12-2.35.25-3.52q.06-.64.15-1.29c.32.94.67,1.87,1.07,2.78l0,.08c.17.39.36.79.55,1.17a23.54,23.54,0,0,0,1.46,2.59,17.69,17.69,0,0,0,4.71,4.89c1.89,1.32,4,2.3,5.92,3.51,8.19,5.08,10.15,15.31,15.72,22.59a39.77,39.77,0,0,0,19.4,13.56,37.93,37.93,0,0,0,11.91,1.83c5.27,0,10.42-1.3,15.63-1.93,6.06-.73,12.21-.47,18.3-.39l17,.21-15.22,10.24c-5.43,3.65-10.77,7.5-16.54,10.61-9.67,5.21-22.39,7.84-31.49,0-3.69-3.17-6.6-7.34-11-9.7-2.52-1.38-5.34-1.76-8.13-2.29a23.29,23.29,0,0,1-7.1-2.45c-8.75-4.82-13.67-14.62-17-23.61-.27-.72-.53-1.44-.79-2.17-.69-2-1.34-3.94-1.92-5.94a77.69,77.69,0,0,1-2.39-11.07c0-.17,0-.34-.07-.5C1762,130.23,1761.83,128.72,1761.75,127.22Zm-91.59,76.39c8.78-3.84,15.54-10.57,22.54-16.92a80.5,80.5,0,0,1,12.28-9.57c4.7-2.83,9.87-4.4,15-6.22,4.94-1.75,9.63-3.91,13.48-7.54s7.12-8.24,10.35-12.55q8.84-11.79,16.82-24.19c.07,1.71.22,3.42.44,5.11a173.84,173.84,0,0,1-6.3,26.51c-3.48,10.66-8.85,21.19-18.15,27.9a32.69,32.69,0,0,1-7.21,4,41.24,41.24,0,0,1-8.69,2.09,52.57,52.57,0,0,0-8.41,1.75,41.67,41.67,0,0,0-7.37,3.32c-9.33,5.25-17.42,13.45-28.17,15.79a30.9,30.9,0,0,1-27.61-8C1655.94,207.71,1663.56,206.49,1670.16,203.61Zm-22.61-.23-.22-.26h0Z"/><path class="cls-2" d="M1763.75,113.35a.13.13,0,0,0,.07,0Z"/><path class="cls-2" d="M1389.22,165.14a16.69,16.69,0,0,0,8.36-3.14,16.26,16.26,0,0,0,6.41-10c.94-4.52.69-9.19,2.21-13.6.31-.9.67-1.77,1-2.64,1.4,3.37,3,6.68,4.13,10.13a42.45,42.45,0,0,1,2.17,16.73l-.06.66a3.88,3.88,0,0,0,.67.06,4.65,4.65,0,0,0,2.71-.87,12.81,12.81,0,0,0,3.34-3.8,34.46,34.46,0,0,0,5.28-14.2c.43-3.05.52-6.14.68-9.21l.88,2.92a57.87,57.87,0,0,1,1.44,5.62c.37,1.95.59,3.92.93,5.88a33.4,33.4,0,0,0,1.44,5.56,25.75,25.75,0,0,1,1.53,5.49c.42,3.59-.35,7.48,1.82,10.65.83,1.21,2.29,2.43,3.86,2.31s2.44-2,3.08-3.29c1.56-3.18,3.1-6.37,4.39-9.67a48.25,48.25,0,0,0,2.49-8.46c3.9,5.36,8.51,10.42,14.24,13.84a28.05,28.05,0,0,0,6.07,2.74l.67.2a6.26,6.26,0,0,0,.45-.57,8.16,8.16,0,0,0,1.31-3c.76-3.5-.9-7-2-10.2-1.39-4-1.74-8.15-2.84-12.19a36.75,36.75,0,0,0-1.54-4.54c.4.58.82,1.15,1.25,1.71a57.33,57.33,0,0,0,8.17,8.88,25,25,0,0,0,8.2,4.94c.25.09.51.17.77.24.2-.17.4-.34.59-.53a9.74,9.74,0,0,0,1.43-1.76,8.78,8.78,0,0,0,.06-9.27,45.79,45.79,0,0,0-3.51-4.92,16.57,16.57,0,0,1-2.91-5.72,41.57,41.57,0,0,1-.92-6.2c-.07-.62-.15-1.23-.24-1.84,3.4.75,6.94.92,10.15,2.37,4.27,1.92,7.58,5.39,10.68,8.84l.46.51c.13-.19.25-.39.36-.59a9.19,9.19,0,0,0,1-3.6,10,10,0,0,0,1.25.48,6.13,6.13,0,0,0,3.59.24c1.49-.54.84-1.9.44-3l-1.8-5a40.55,40.55,0,0,0-4.07-9.09c-1.92-2.86-4.65-5-7-7.39a29.49,29.49,0,0,1-5.56-8.26,48.06,48.06,0,0,0-4.53-8.19,18.49,18.49,0,0,0-4.13-3.76,58.8,58.8,0,0,0-6.74-4.14c-.82-.44-1.65-.88-2.51-1.28-.27-.22-.54-.44-.82-.65a51.63,51.63,0,0,0,10.33,1,59.14,59.14,0,0,0,8.19-.59c1.42-.2,2.85-.46,4.26-.76s2.65-.73,4-.93c2.61-.38,5.35.17,7.93.57s5.06.9,7.54.49c2.9-.47,5.3-2.48,7.19-4.62l.06-.07.37-.42c-.19-.12-.38-.24-.56-.37-.52-.35-1-.73-1.37-1-2.13-1.62-4.1-3.42-6.15-5.13a42.69,42.69,0,0,0-7.17-5.08,55,55,0,0,0-9.14-3.74,76.15,76.15,0,0,0-19.56-3.11c-2.49-.11-5-.11-7.5,0l-1.25.08-.14,0c-1.33-.45-2.68-.82-4-1.2-4.1-1.15-8.24-2.11-12.37-3.11s-8-2-11.87-3.24a49.22,49.22,0,0,1-7.35-3.17,120,120,0,0,1-16-10.32,174.27,174.27,0,0,1-14.15-11.73c-.51-1.3-1-2.58-1.57-3.87-1.59-3.87-3.21-7.74-4.83-11.6Q1390,2.76,1387-4.15T1381-18q-2.54-5.78-5.15-11.52c-1.06-2.32-2.1-4.66-3.31-6.91-.13-.25-.27-.5-.42-.73s-.83-.07-.59.29a45.73,45.73,0,0,1,2.7,5.43c1.64,3.51,3.22,7.05,4.79,10.6q3,6.69,5.86,13.41,3,7,6,14.08c1.75,4.12,3.49,8.25,5.19,12.39.7,1.68,1.4,3.37,2.08,5.06.19.49.39,1,.58,1.45l.72,1.86c.34.88.61,1.65.87,2.53a98.14,98.14,0,0,1,2.86,11.69,45.57,45.57,0,0,1,.53,12.23,53.27,53.27,0,0,1-3.08,12.42c-2.86,8-6.74,15.61-8.67,23.9a59,59,0,0,0-.41,22.43h0c-.27.75-.53,1.51-.77,2.28a62.51,62.51,0,0,0-2.69,13.34,60.9,60.9,0,0,0-.13,9.55c.18,2.89.58,5.75,1,8.62.78,6,1.53,12.23-.2,18.09-.06.23-.13.45-.21.68Zm34.7-16.29a33.83,33.83,0,0,1-4.65,10c-1,1.52-2.35,3.28-4.26,3.73a3.56,3.56,0,0,1-.8.08,42,42,0,0,0-1.4-14.38c-1.27-4.63-3.38-8.94-5.18-13.38-.11-.27-.23-.55-.34-.83-.27-.69-.53-1.37-.78-2.07a32.86,32.86,0,0,1-1.91-8,24,24,0,0,1,.93-8.59c.78-2.82,1.82-5.57,2.8-8.32.88-2.5,1.77-5,2.63-7.5a10.08,10.08,0,0,1,2.77,2.48c2.36,3.09,2.37,7.3,4.55,10.48a7.92,7.92,0,0,0,1.37,1.52,7.63,7.63,0,0,0,.7.54c0-.3,0-.59-.06-.89-.31-7.12,2.59-13.91,5.16-20.43l.18-.47.39-1c.49-1.28,1-2.57,1.4-3.87a28.93,28.93,0,0,1,1.53,3.35,35.39,35.39,0,0,1,2.24,13.75c0,.45,0,.91-.06,1.36q-.11,1.69-.33,3.39a58.43,58.43,0,0,1-2.24,9.4,64.21,64.21,0,0,0-2.52,9.93c-.11.74-.19,1.48-.27,2.23s-.11,1.3-.16,1.95C1425.25,138.55,1425.32,143.79,1423.92,148.85Zm5.94-75.71a30,30,0,0,1,6.52,3.17,41,41,0,0,1,10.87,10.39,61.58,61.58,0,0,1,7.41,13.56c1.11,2.76,1.94,5.62,2.82,8.46l.54,1.7c.53,1.66,1.11,3.31,1.79,4.92,1.75,4.12,4.61,8.17,8.72,10.09a18.12,18.12,0,0,1-7.58,2.66,17,17,0,0,1-1.88.12H1458c-.31,0-.62,0-.93-.07a23.92,23.92,0,0,1-12.29-5.21c-.47-.36-.93-.74-1.38-1.13s-.65-.57-1-.87a51.17,51.17,0,0,1-9.52-12.61c-.38-.66-.74-1.33-1.09-2a37.67,37.67,0,0,0-1.35-12.59,31.59,31.59,0,0,0-2.75-6.58,24.91,24.91,0,0,0,1.15-4.37,10.65,10.65,0,0,0-.14-2.93,34.36,34.36,0,0,0-.78-3.76c-.24-.95-.49-1.94-.78-2.92A24.5,24.5,0,0,0,1429.86,73.14Zm16.21,84.09a76.32,76.32,0,0,1-4,9.65c-.71,1.51-1.4,3.05-2.21,4.51-.47.84-1.13,1.73-2.21,1.64a4,4,0,0,1-2.42-1.37c-2.56-2.77-1.91-6.86-2.17-10.3-.27-3.63-2.06-6.88-2.78-10.41-.42-2-.65-4.08-1-6.11a52.86,52.86,0,0,0-1.45-6.12c-.52-1.81-1.1-3.61-1.61-5.42a48.34,48.34,0,0,1,1.76-10.11c1-3.45,2.2-6.84,2.91-10.36a46.59,46.59,0,0,0,.75-5.28c.11.21.23.42.35.63a53.08,53.08,0,0,0,10.74,14q2.13,6.84,3.72,13.82a45,45,0,0,1,1.4,11.14,31.39,31.39,0,0,1-.3,3.49c0,.3-.09.59-.14.89A40.34,40.34,0,0,1,1446.07,157.23Zm18.61-15.86c1.21,3.68,1.61,7.52,2.55,11.26.85,3.38,2.62,6.56,3,10.06a8.43,8.43,0,0,1-1.43,5.61,33.45,33.45,0,0,1-13.52-8.52,63.2,63.2,0,0,1-7.1-8.37c0-.33.1-.67.14-1a35.63,35.63,0,0,0-.43-11,133.74,133.74,0,0,0-3.28-13.41c-.28-1-.58-2-.88-3a23.63,23.63,0,0,0,13.94,5.88,38.54,38.54,0,0,1,3.69,5.2A37.62,37.62,0,0,1,1464.68,141.37Zm11.92-17.15c.28,2,.4,4,.71,5.93a16.83,16.83,0,0,0,1.68,5.36,35.49,35.49,0,0,0,3.29,4.71c2.15,2.84,4.06,6.09,2.78,9.72a8.92,8.92,0,0,1-2.47,3.67,23.43,23.43,0,0,1-7.94-4.56,58.33,58.33,0,0,1-12.71-15.4l0,0c-.25-.42-.51-.84-.78-1.25a37.66,37.66,0,0,0-2.29-3.18l-.28-.36h.84l.7,0a18.73,18.73,0,0,0,9.16-3.09c.23-.15.44-.31.66-.47l-.73-.28c-4.1-1.76-6.93-5.69-8.68-9.73-.51-1.17-.94-2.36-1.35-3.57,1.53,1.66,3.11,3.27,4.76,4.79a35.32,35.32,0,0,0,8.14,5.81l.6.28q1,.45,2,.81a18.56,18.56,0,0,0,1.93.57C1476.57,124,1476.59,124.13,1476.6,124.22ZM1475.79,87a31.8,31.8,0,0,1,4.62,3.46,22.32,22.32,0,0,1,4.19,6.35,71,71,0,0,0,4.16,7.92,42.05,42.05,0,0,0,6.37,6.83,28,28,0,0,1,3.25,3.55,21.79,21.79,0,0,1,2.36,4.18c1.29,2.91,2.28,6,3.36,9l.53,1.46a6,6,0,0,1,.45,1.29c.11,1.17-1.7.92-2.4.82a8.85,8.85,0,0,1-2.7-.85c0-.21,0-.42,0-.63a14.35,14.35,0,0,0-3.67-8.32c-2.29-2.76-5.12-5-7.53-7.64a21.1,21.1,0,0,1-3.23-4.51,33.08,33.08,0,0,1-2-4.87,61.61,61.61,0,0,0-3.66-9.4,41.53,41.53,0,0,0-5.76-8.21,45.16,45.16,0,0,0-3.23-3.26Q1473.42,85.4,1475.79,87Zm-9.18-5.56q1,.72,1.92,1.5c1.08.89,2.13,1.83,3.14,2.82a42.4,42.4,0,0,1,6.28,7.78,41.45,41.45,0,0,1,4.14,9.09,39.15,39.15,0,0,0,3.61,8.87c1.9,3,4.63,5.39,7.18,7.86s5.21,5.38,6.12,9a9.72,9.72,0,0,1,.31,2.29c0,.25,0,.5,0,.75a8.57,8.57,0,0,1-.89,3.39,39.6,39.6,0,0,0-8.66-7.74,19.21,19.21,0,0,0-5.93-2.33c-2.15-.47-4.35-.68-6.5-1.17l-.18,0-.7-.18a22.37,22.37,0,0,1-3.38-1.23l-.6-.28a32,32,0,0,1-6.73-4.53,68.57,68.57,0,0,1-7.1-7.16c-.28-.9-.55-1.81-.83-2.71-.75-2.49-1.57-5-2.54-7.37-3.76-9.35-9.57-18.39-18.15-24-.83-.53-1.68-1-2.56-1.52a32.25,32.25,0,0,0-3.09-1.46c1.37-.13,2.73-.35,4.06-.61l.12,0c.3-.05.59-.12.88-.18,2-.43,4.07-.94,6.1-1.41q2.46.59,4.89,1.32c.59.19,1.19.37,1.78.57h0c1,.32,1.94.66,2.89,1a59.34,59.34,0,0,1,12.88,6.6c.48.32,1,.66,1.42,1Zm6.14-22.89a77.32,77.32,0,0,1,19.54,2.82,60,60,0,0,1,9.5,3.72,39.08,39.08,0,0,1,7.06,4.84c2.29,1.89,4.47,3.92,6.85,5.71.34.26.74.57,1.18.87l-.13.13a12.23,12.23,0,0,1-6.43,4.17c-2.47.47-5.13-.09-7.58-.47a31.62,31.62,0,0,0-7.45-.63,25.77,25.77,0,0,0-3.67.78c-1.31.31-2.64.57-4,.78a56.77,56.77,0,0,1-8.13.76,52.16,52.16,0,0,1-12.7-1.26,55.42,55.42,0,0,0-9-5.39c-1.64-.79-3.32-1.5-5-2.15l-.62-.23c-1.4-.52-2.83-1-4.26-1.43-1.26-.39-2.52-.74-3.79-1.06a35.12,35.12,0,0,1,9.69-1l.72.05.36-.62a30.16,30.16,0,0,1,10.24-10.25h.06l1.54-.1C1468.71,58.45,1470.73,58.44,1472.75,58.5Zm-81.07,37c1-8.47,4.57-16.28,7.7-24.12a85.5,85.5,0,0,0,4.07-12.16,41.18,41.18,0,0,0,1-12.17,64.53,64.53,0,0,0-2-11.71c-.59-2.33-1.19-4.7-2-7-.21-.6-.44-1.19-.66-1.78,3.39,3.08,6.92,6,10.54,8.83a137.17,137.17,0,0,0,16.1,11,64.05,64.05,0,0,0,7.28,3.62,76.87,76.87,0,0,0,10,3.09c4.12,1.07,8.27,2,12.39,3,2,.51,4,1,6,1.63l1.33.38.83.24c-.22.13-.43.27-.64.41a30.67,30.67,0,0,0-9.53,10.06,28.92,28.92,0,0,0-5.89.18c-1.89.25-3.75.63-5.61,1.06l-1.45.34-4,.93-1.06.22a41.45,41.45,0,0,1-6.18.89l-1.19,0c-.49,0-1,0-1.48,0l-.35,0a0,0,0,0,1,0,0l-.73,0v0l.21.68c.23.76.44,1.53.64,2.28a21.76,21.76,0,0,1,1.15,7.06,13.41,13.41,0,0,1-.45,2.07c-.16.61-.34,1.22-.52,1.82l-.27.85a2.81,2.81,0,0,1-.1.31c-.36,1.11-.76,2.21-1.17,3.31l-.39,1-.42,1.07c-1.38,3.52-2.84,7-3.88,10.65a33.13,33.13,0,0,0-1.4,9.62l-.23-.24a15.35,15.35,0,0,1-2.65-5.7,18,18,0,0,0-2.45-5.49,10.67,10.67,0,0,0-3.11-2.76c-.2-.12-.39-.23-.59-.33s-.45-.23-.67-.33a12.27,12.27,0,0,0-2.7-.85c-.23,0-.47-.09-.71-.12-.14.21-.29.41-.44.61-2.48,3.31-5.84,6-8.9,8.72a48.14,48.14,0,0,0-4.29,4.28c-.27.31-.52.61-.77.93,0-.19-.06-.37-.08-.56A61.32,61.32,0,0,1,1391.68,95.49Zm-1.74,53.82c-.71-6-1.66-12-1.4-18.11a62.34,62.34,0,0,1,3.23-17.21c.12-.36.24-.72.37-1.07l.1-.14c3.31-4.32,7.83-7.45,11.64-11.3a28.9,28.9,0,0,0,2.93-3.42,12.11,12.11,0,0,1,3.56,1.22c-1.66,4.8-3.48,9.54-5,14.39a28.21,28.21,0,0,0-1.51,8.23,26.71,26.71,0,0,0,1.21,7.83c.52,1.76,1.15,3.49,1.84,5.19-.23.48-.44,1-.64,1.45a26.57,26.57,0,0,0-1.79,6.35c-.32,2.15-.45,4.33-.71,6.49a21.42,21.42,0,0,1-1.58,6.26,15.1,15.1,0,0,1-3.44,4.72,16.15,16.15,0,0,1-9.33,4.26C1390.81,159.54,1390.53,154.35,1389.94,149.31Z"/><path class="cls-2" d="M1399,140.63q-.66,5.61-.88,11.24c0,.25-.39.23-.39,0q.21-5.64.88-11.24C1398.67,140.36,1399.06,140.38,1399,140.63Z"/><path class="cls-2" d="M1392.24,153.39a.19.19,0,0,1-.38.08,58,58,0,0,1,0-25.71c0-.25.42-.12.37.12A57.5,57.5,0,0,0,1392.24,153.39Z"/><path class="cls-2" d="M1399.77,138c0,.25-.43.23-.39,0,.09-.6.17-1.21.26-1.81,0-.25.43-.23.39,0C1399.94,136.8,1399.86,137.41,1399.77,138Z"/><path class="cls-2" d="M1392.64,124.51a7.34,7.34,0,0,1,.63-2.84c.1-.23.47-.11.37.12a7,7,0,0,0-.61,2.74A.2.2,0,0,1,1392.64,124.51Z"/><path class="cls-2" d="M1401,126.08l.12.84c0,.24-.35.33-.38.08l-.12-.84C1400.63,125.91,1401,125.83,1401,126.08Z"/><path class="cls-2" d="M1411.67,139.69a31.38,31.38,0,0,1-3.18-9.8c0-.25.34-.33.38-.08a30.91,30.91,0,0,0,3.16,9.71C1412.14,139.74,1411.79,139.91,1411.67,139.69Z"/><path class="cls-2" d="M1421.06,145.86a5.1,5.1,0,0,1,.4,2.28.2.2,0,0,1-.39,0,4.62,4.62,0,0,0-.36-2.08C1420.62,145.81,1421,145.63,1421.06,145.86Z"/><path class="cls-2" d="M1393.86,117.69a3.6,3.6,0,0,0,.78-2.2.2.2,0,0,1,.39,0,3.93,3.93,0,0,1-.84,2.39C1394,118.1,1393.71,117.89,1393.86,117.69Z"/><path class="cls-2" d="M1420.81,143.59c.06.24-.33.32-.38.08-.24-1-.47-2-.71-3.06a.2.2,0,0,1,.39-.08C1420.34,141.55,1420.57,142.57,1420.81,143.59Z"/><path class="cls-2" d="M1438.76,164.89a4.48,4.48,0,0,0,.62-2.82c0-.24.36-.32.38-.07a4.82,4.82,0,0,1-.67,3.1C1439,165.32,1438.63,165.11,1438.76,164.89Z"/><path class="cls-2" d="M1407.79,120.68l-.09,4.31a.2.2,0,0,1-.39,0l.09-4.31C1407.4,120.41,1407.79,120.43,1407.79,120.68Z"/><path class="cls-2" d="M1401.54,123.34a51.09,51.09,0,0,1,1.56-13.71c.06-.25.43-.13.37.12a50.75,50.75,0,0,0-1.54,13.61C1401.94,123.61,1401.55,123.59,1401.54,123.34Z"/><path class="cls-2" d="M1437.61,150.94c0,.25-.35.33-.38.08s-.07-.56-.11-.84.35-.33.38-.08S1437.58,150.66,1437.61,150.94Z"/><path class="cls-2" d="M1410,112.36a12.52,12.52,0,0,0-.77,3.25.2.2,0,0,1-.39,0,12.49,12.49,0,0,1,.79-3.35C1409.74,112,1410.11,112.12,1410,112.36Z"/><path class="cls-2" d="M1431.53,141.31c0,.25-.34.33-.38.08-.25-1.5-.51-3-.76-4.49a.2.2,0,0,1,.39-.08Z"/><path class="cls-2" d="M1429.38,132.43c.21.78.42,1.55.62,2.33.07.24-.32.32-.38.08l-.62-2.33C1428.94,132.26,1429.32,132.19,1429.38,132.43Z"/><path class="cls-2" d="M1405.88,106a7.82,7.82,0,0,0-1.11,2.44c-.07.24-.44.12-.38-.12a8.42,8.42,0,0,1,1.16-2.53C1405.69,105.61,1406,105.82,1405.88,106Z"/><path class="cls-2" d="M1440.56,159.24a61.33,61.33,0,0,0,2.16-17.93c0-.25.38-.23.39,0a61.68,61.68,0,0,1-2.18,18C1440.86,159.6,1440.49,159.48,1440.56,159.24Z"/><path class="cls-2" d="M1459.3,159.4c.14.21-.22.38-.35.18a17.43,17.43,0,0,1-2.32-5.52.19.19,0,0,1,.38-.08A17.29,17.29,0,0,0,1459.3,159.4Z"/><path class="cls-2" d="M1434.19,124.75a109.18,109.18,0,0,0,2.55,19.47.19.19,0,0,1-.38.08,111.12,111.12,0,0,1-2.57-19.57C1433.78,124.48,1434.18,124.5,1434.19,124.75Z"/><path class="cls-2" d="M1451.9,148.89a15.54,15.54,0,0,1-1.23-3.63.2.2,0,0,1,.39-.08,15.21,15.21,0,0,0,1.19,3.54A.19.19,0,0,1,1451.9,148.89Z"/><path class="cls-2" d="M1441.86,137.94a4.34,4.34,0,0,0-.45-2.6c-.12-.22.23-.4.35-.17a4.83,4.83,0,0,1,.49,2.8C1442.21,138.21,1441.82,138.19,1441.86,137.94Z"/><path class="cls-2" d="M1419.56,136.92c-.64-8.81,1.89-17.39,4.5-25.69a.2.2,0,0,1,.38.12c-2.61,8.27-5.13,16.81-4.49,25.59C1420,137.19,1419.58,137.16,1419.56,136.92Z"/><path class="cls-2" d="M1432.27,121.8a6.65,6.65,0,0,0-.19-3.4c-.08-.23.3-.31.38-.07a7.05,7.05,0,0,1,.19,3.59C1432.6,122.17,1432.22,122.05,1432.27,121.8Z"/><path class="cls-2" d="M1448.29,136.34a16.3,16.3,0,0,1-.45-2.88c0-.25.38-.23.39,0a15.35,15.35,0,0,0,.45,2.78C1448.74,136.51,1448.36,136.59,1448.29,136.34Z"/><path class="cls-2" d="M1458.36,148.33c.08.23-.27.41-.35.17q-2.49-6.88-4.63-13.88c-.08-.24.31-.32.38-.08Q1455.89,141.48,1458.36,148.33Z"/><path class="cls-2" d="M1466.14,158.64c.07.25-.31.32-.38.08q-2.12-7.58-3.55-15.33c0-.24.34-.32.38-.08Q1464,151.05,1466.14,158.64Z"/><path class="cls-2" d="M1451.5,132.63a5.78,5.78,0,0,1-.92-2.13.19.19,0,0,1,.38-.08,5.36,5.36,0,0,0,.83,2C1451.93,132.58,1451.64,132.84,1451.5,132.63Z"/><path class="cls-2" d="M1461.84,140.1c.1.23-.25.41-.35.18l-1.57-3.61c-.1-.22.25-.4.35-.17Z"/><path class="cls-2" d="M1450.59,124.13a18.25,18.25,0,0,1-6-6.77c-.12-.22.23-.39.35-.17a18,18,0,0,0,5.82,6.61C1451,123.94,1450.79,124.27,1450.59,124.13Z"/><path class="cls-2" d="M1441,112.57a8.15,8.15,0,0,0,1.64,2.54c.18.18-.11.44-.29.26a8.32,8.32,0,0,1-1.7-2.63C1440.5,112.51,1440.85,112.33,1441,112.57Z"/><path class="cls-2" d="M1438.43,110.16a.19.19,0,0,1-.38.07l-.26-1.34c0-.24.34-.32.38-.08Z"/><path class="cls-2" d="M1472.17,143.68a14.53,14.53,0,0,1-2.53-3.15c-.12-.22.23-.39.35-.18a13.82,13.82,0,0,0,2.47,3.07C1472.65,143.59,1472.36,143.85,1472.17,143.68Z"/><path class="cls-2" d="M1466.6,135.85c.39.69.79,1.38,1.19,2.07.12.22-.23.39-.35.18l-1.19-2.08C1466.12,135.81,1466.47,135.63,1466.6,135.85Z"/><path class="cls-2" d="M1462.79,129.56l.69,2.53c.06.24-.32.32-.38.08l-.7-2.53C1462.34,129.4,1462.72,129.32,1462.79,129.56Z"/><path class="cls-2" d="M1449.68,116.05c.14.21-.21.38-.35.18-.39-.59-.79-1.17-1.19-1.76-.14-.21.22-.38.35-.18Z"/><path class="cls-2" d="M1460.68,125.65l-.47-.52a.2.2,0,0,1,.29-.27l.47.53C1461.14,125.57,1460.85,125.84,1460.68,125.65Z"/><path class="cls-2" d="M1471.33,137.82a21.43,21.43,0,0,1-3.09-6.2c-.07-.24.31-.32.39-.08a20.21,20.21,0,0,0,3,6C1471.77,137.77,1471.48,138,1471.33,137.82Z"/><path class="cls-2" d="M1480.68,146.44a25,25,0,0,1-6.65-14c0-.25.35-.33.39-.08a24.64,24.64,0,0,0,6.55,13.84A.19.19,0,0,1,1480.68,146.44Z"/><path class="cls-2" d="M1457.53,119.42l.45.86c.12.22-.23.39-.35.17l-.45-.85A.2.2,0,0,1,1457.53,119.42Z"/><path class="cls-2" d="M1437.87,92.64q5,9.45,10.38,18.7c.12.22-.23.39-.35.18q-5.36-9.26-10.37-18.7A.19.19,0,0,1,1437.87,92.64Z"/><path class="cls-2" d="M1434.52,89.66c.14.21-.21.38-.35.17a28.91,28.91,0,0,1-2.4-4.45c-.09-.24.26-.41.35-.18A29,29,0,0,0,1434.52,89.66Z"/><path class="cls-2" d="M1473.74,130.14c0,.25-.35.33-.38.08-.09-.67-.17-1.33-.25-2,0-.25.35-.33.38-.08C1473.57,128.81,1473.66,129.48,1473.74,130.14Z"/><path class="cls-2" d="M1445,90.27c5.38,7.19,8.33,15.74,11.19,24.15.08.24-.3.32-.38.08-2.84-8.34-5.77-16.84-11.1-24C1444.55,90.33,1444.84,90.07,1445,90.27Z"/><path class="cls-2" d="M1433.81,78l2,2.95c.14.21-.21.38-.35.17l-2-2.95C1433.32,78,1433.67,77.8,1433.81,78Z"/><path class="cls-2" d="M1442.53,87.75c.15.2-.14.46-.29.26l-3.52-4.71c-.15-.2.14-.46.29-.26Z"/><path class="cls-2" d="M1476.68,117a42.14,42.14,0,0,1-14.16-14.43c-.13-.22.22-.4.35-.18a41.74,41.74,0,0,0,14,14.28C1477.11,116.78,1476.9,117.11,1476.68,117Z"/><path class="cls-2" d="M1459,99.17a29.88,29.88,0,0,1-4.4-5.91c-.13-.21.22-.39.35-.17a29,29,0,0,0,4.34,5.81A.2.2,0,0,1,1459,99.17Z"/><path class="cls-2" d="M1450.68,87.11a2.13,2.13,0,0,1-.89-1.3.2.2,0,0,1,.39-.08,1.66,1.66,0,0,0,.72,1C1451.1,86.93,1450.89,87.26,1450.68,87.11Z"/><path class="cls-2" d="M1458.19,88.5l-1.09-1.22a.19.19,0,0,1,.29-.26l1.09,1.22C1458.65,88.42,1458.36,88.68,1458.19,88.5Z"/><path class="cls-2" d="M1470.59,101.94,1462,92.35a.19.19,0,0,1,.29-.26l8.62,9.59C1471.05,101.87,1470.75,102.13,1470.59,101.94Z"/><path class="cls-2" d="M1474.93,105.38c.14.21-.21.38-.35.17a13.52,13.52,0,0,0-2.23-2.66c-.19-.18.11-.44.29-.27A14.43,14.43,0,0,1,1474.93,105.38Z"/><path class="cls-2" d="M1450.67,76.77q-2.1-1.41-4.08-3c-.19-.15,0-.48.22-.33,1.31,1.07,2.67,2.06,4.07,3C1451.09,76.58,1450.88,76.91,1450.67,76.77Z"/><path class="cls-2" d="M1496.21,128.72l-1.41-1.57a.19.19,0,0,1,.29-.26l1.41,1.57C1496.67,128.64,1496.37,128.9,1496.21,128.72Z"/><path class="cls-2" d="M1495.4,125c-5.72-5.37-11.54-10.89-15.16-18-.12-.22.23-.4.35-.17,3.6,7,9.41,12.53,15.1,17.87C1495.88,124.93,1495.58,125.19,1495.4,125Z"/><path class="cls-2" d="M1476,98.73l3.12,5.74a.2.2,0,0,1-.35.18l-3.12-5.75C1475.49,98.68,1475.84,98.51,1476,98.73Z"/><path class="cls-2" d="M1473.56,96.4a8.14,8.14,0,0,0-1.86-3c-.18-.18.12-.44.29-.26a8.33,8.33,0,0,1,1.92,3.1C1474,96.46,1473.65,96.63,1473.56,96.4Z"/><path class="cls-2" d="M1457.29,78.83a25.37,25.37,0,0,1,7.72,5.76c.16.18-.13.44-.3.26a25.1,25.1,0,0,0-7.63-5.69C1456.86,79.05,1457.07,78.72,1457.29,78.83Z"/><path class="cls-2" d="M1463.69,72l-6.14.31c-.25,0-.23-.37,0-.39l6.14-.3C1464,71.59,1463.94,72,1463.69,72Z"/><path class="cls-2" d="M1471.73,70.86l-4,.09c-.25,0-.23-.39,0-.39l4-.09C1472,70.46,1472,70.85,1471.73,70.86Z"/><path class="cls-2" d="M1481.09,62.42a4.71,4.71,0,0,0-3,.26c-.23.1-.4-.25-.17-.35a5.26,5.26,0,0,1,3.32-.29C1481.46,62.1,1481.33,62.47,1481.09,62.42Z"/><path class="cls-2" d="M1497.24,74.62a44.87,44.87,0,0,0-19.71-3.57c-.25,0-.23-.38,0-.39a45,45,0,0,1,19.81,3.59C1497.59,74.34,1497.47,74.72,1497.24,74.62Z"/><path class="cls-2" d="M1491.35,64.17l-5.93-.9c-.25,0-.23-.43,0-.39l5.94.9C1491.62,63.81,1491.6,64.2,1491.35,64.17Z"/><path class="cls-2" d="M1511.66,75.06c.19.16,0,.49-.22.33a68.83,68.83,0,0,0-17.2-10.62c-.23-.1-.11-.47.12-.37A69.26,69.26,0,0,1,1511.66,75.06Z"/></g><g id="Clipp"><rect class="cls-3" width="3000" height="1800"/></g></svg>